<svg width="500" height="500" viewBox="0 0 500 500" fill="none" xmlns="http://www.w3.org/2000/svg">
<path d="M54.2799 280.43L62.5299 275.67C62.5299 275.67 67.4399 255.27 65.5299 236.91C62.7799 211.11 45.7999 201.4 39.3399 203.62C32.8799 205.84 31.0099 213.36 41.6899 228.73C47.9999 237.8 55.6999 256.68 54.2799 280.43Z" fill="#F69659"></path>
<g opacity="0.15">
<path d="M54.2799 280.43L62.5299 275.67C62.5299 275.67 67.4399 255.27 65.5299 236.91C62.7799 211.11 45.7999 201.4 39.3399 203.62C32.8799 205.84 31.0099 213.36 41.6899 228.73C47.9999 237.8 55.6999 256.68 54.2799 280.43Z" fill="black"></path>
</g>
<path d="M57.7 270.41H57.62C57.5464 270.396 57.4764 270.367 57.4139 270.326C57.3515 270.284 57.2978 270.231 57.256 270.168C57.2142 270.106 57.1851 270.036 57.1703 269.963C57.1556 269.889 57.1554 269.814 57.17 269.74C61.69 245.94 53.37 219.19 43.08 208.06C43.0252 208.008 42.9816 207.945 42.9519 207.875C42.9221 207.806 42.9067 207.731 42.9067 207.655C42.9067 207.579 42.9221 207.504 42.9519 207.435C42.9816 207.365 43.0252 207.302 43.08 207.25C43.133 207.197 43.1961 207.154 43.2656 207.125C43.3351 207.096 43.4097 207.081 43.485 207.081C43.5603 207.081 43.6349 207.096 43.7044 207.125C43.7739 207.154 43.837 207.197 43.89 207.25C54.37 218.58 62.89 245.76 58.26 269.92C58.2428 270.056 58.1764 270.181 58.0731 270.272C57.9699 270.362 57.8371 270.411 57.7 270.41Z" fill="white"></path>
<path d="M31.49 296.53C30.19 297.19 26.72 294.22 25.76 293.53C24.1105 292.268 22.8152 290.6 22 288.69C21.075 286.527 20.8443 284.13 21.34 281.83C21.588 280.618 21.9221 279.425 22.34 278.26C22.73 277.11 23.13 275.95 23.53 274.8C23.9939 273.685 24.2285 272.488 24.22 271.28C24.03 268.87 21.99 267.08 20.12 265.53C18.06 263.82 15.93 261.59 16.12 258.7C16.3964 256.459 17.4095 254.373 19 252.77C20.48 251.09 22.19 249.63 23.54 247.84C24.5844 246.599 25.1767 245.041 25.22 243.42C25.1345 242.423 24.8488 241.454 24.38 240.57C23.45 238.63 22.2 236.84 21.59 234.78C20.98 232.72 21.22 230.22 22.87 228.85C24.23 227.73 26.16 227.66 27.87 227.85C29.4997 228.136 31.0484 228.77 32.41 229.71C36.87 232.5 39.22 238.07 43.99 240.27C45.8869 240.973 47.8277 241.551 49.8 242C51.73 242.62 53.68 243.72 54.49 245.58C56.1 249.24 52.56 253.47 53.63 257.32C54.57 260.73 57.76 262.18 59.44 265.32C60.1206 266.691 60.3449 268.243 60.08 269.75C59.7913 272.309 59.0355 274.794 57.85 277.08C56.5208 279.425 55.048 281.686 53.44 283.85C53.44 283.85 31.69 296.43 31.49 296.53Z" fill="#F69659"></path>
<path d="M44.1201 290C44.0442 289.994 43.9703 289.972 43.9028 289.937C43.8353 289.902 43.7756 289.853 43.7271 289.795C43.6786 289.736 43.6424 289.668 43.6206 289.595C43.5988 289.522 43.5918 289.446 43.6001 289.37C45.6801 266.73 36.2601 241.15 28.8501 233.48C28.7975 233.426 28.7561 233.362 28.7282 233.293C28.7003 233.223 28.6864 233.148 28.6873 233.073C28.6882 232.998 28.704 232.923 28.7336 232.854C28.7632 232.785 28.8062 232.723 28.8601 232.67C28.9139 232.617 28.9776 232.576 29.0474 232.548C29.1172 232.52 29.1919 232.506 29.2671 232.507C29.3423 232.508 29.4166 232.524 29.4858 232.554C29.5549 232.583 29.6175 232.626 29.6701 232.68C37.2301 240.5 46.8501 266.52 44.7401 289.48C44.7225 289.629 44.6485 289.766 44.5332 289.863C44.418 289.96 44.2702 290.009 44.1201 290Z" fill="white"></path>
<path d="M41.87 262C41.8138 262.01 41.7563 262.01 41.7 262C36.399 260.249 30.9236 259.079 25.37 258.51C25.2951 258.504 25.2221 258.483 25.1553 258.448C25.0885 258.413 25.0293 258.366 24.9809 258.308C24.9326 258.251 24.8961 258.184 24.8737 258.112C24.8512 258.04 24.8432 257.965 24.85 257.89C24.855 257.815 24.8752 257.741 24.9093 257.673C24.9435 257.606 24.991 257.546 25.049 257.498C25.1069 257.449 25.1741 257.413 25.2464 257.391C25.3188 257.369 25.3949 257.362 25.47 257.37C31.1225 257.946 36.6953 259.137 42.09 260.92C42.1614 260.946 42.227 260.985 42.2829 261.037C42.3388 261.088 42.3839 261.15 42.4155 261.219C42.4472 261.288 42.4648 261.362 42.4673 261.438C42.4698 261.514 42.4571 261.589 42.43 261.66C42.3842 261.768 42.3055 261.859 42.2049 261.92C42.1044 261.982 41.9873 262.009 41.87 262Z" fill="white"></path>
<path d="M456.29 290.3L446.49 286.5C446.49 286.5 441.28 267.58 440.42 252.43C439.22 231.15 448.82 203.81 465.9 207.22C482.98 210.63 462.74 235.65 460.27 254.22C457.8 272.79 456.29 290.3 456.29 290.3Z" fill="#F69659"></path>
<path opacity="0.15" d="M456.29 290.3L446.49 286.5C446.49 286.5 441.28 267.58 440.42 252.43C439.22 231.15 448.82 203.81 465.9 207.22C482.98 210.63 462.74 235.65 460.27 254.22C457.8 272.79 456.29 290.3 456.29 290.3Z" fill="black"></path>
<path d="M451.22 288.85C451.363 288.823 451.49 288.741 451.572 288.621C451.655 288.501 451.686 288.353 451.66 288.21C442.82 241.87 462.36 214.82 462.55 214.55C462.602 214.493 462.641 214.426 462.666 214.353C462.69 214.28 462.699 214.202 462.691 214.126C462.684 214.049 462.66 213.975 462.622 213.908C462.584 213.841 462.533 213.782 462.471 213.737C462.409 213.691 462.338 213.659 462.263 213.642C462.187 213.625 462.109 213.625 462.034 213.64C461.958 213.656 461.887 213.687 461.824 213.731C461.762 213.776 461.709 213.834 461.67 213.9C461.47 214.17 441.67 241.61 450.57 288.42C450.601 288.562 450.687 288.686 450.808 288.767C450.929 288.847 451.077 288.877 451.22 288.85Z" fill="white"></path>
<path d="M462.45 292.65L455.45 289.95C455.45 289.95 452.31 276.9 456.29 259.83C459.75 244.97 471.94 231.19 479.36 232.53C486.78 233.87 487.36 238.89 484.77 244.67C482.18 250.45 463.23 266.18 462.45 292.65Z" fill="#F69659"></path>
<path d="M458.86 291.77C458.931 291.759 459 291.734 459.062 291.696C459.124 291.659 459.178 291.609 459.221 291.551C459.264 291.492 459.294 291.426 459.311 291.355C459.328 291.285 459.331 291.212 459.32 291.14C454.6 261.71 479.15 237.49 479.4 237.25C479.452 237.2 479.494 237.139 479.523 237.072C479.552 237.005 479.566 236.933 479.566 236.86C479.566 236.787 479.552 236.715 479.523 236.648C479.494 236.581 479.452 236.52 479.4 236.47C479.35 236.418 479.291 236.376 479.224 236.348C479.158 236.319 479.087 236.304 479.015 236.304C478.943 236.304 478.871 236.319 478.805 236.348C478.739 236.376 478.679 236.418 478.63 236.47C478.37 236.71 453.41 261.33 458.22 291.33C458.247 291.473 458.329 291.6 458.449 291.682C458.569 291.765 458.717 291.796 458.86 291.77Z" fill="white"></path>
<path d="M248 481.85C377.605 481.85 482.67 421.189 482.67 346.36C482.67 271.531 377.605 210.87 248 210.87C118.395 210.87 13.3301 271.531 13.3301 346.36C13.3301 421.189 118.395 481.85 248 481.85Z" fill="#E0E0E0"></path>
<path d="M275.34 480.92C325.99 477.51 375.08 464.59 413.94 442.16C446.29 423.48 467.2 400.71 476.71 376.73L195.39 214.31C153.86 219.8 114.39 231.88 82.0602 250.55C43.2102 272.99 20.8302 301.33 14.9302 330.55L275.34 480.92Z" fill="#F5F5F5"></path>
<path d="M190.2 412.82C200.12 418.13 209.97 423.59 220.48 427.61C227.26 430.2 234.54 431.99 241.83 431.85C247.75 431.73 256.05 429.85 258.76 423.53C260.42 419.65 258.95 414.99 256.21 411.78C253.47 408.57 249.66 406.49 245.95 404.48L192.26 375.48C174.62 365.96 156.87 356.4 137.92 349.72C130.51 347.11 120.92 342.83 112.92 344.08C108.08 344.83 102.58 346.64 99.4001 350.56C95.4701 355.4 95.7901 359.56 100.4 363.2C106.54 367.99 111.87 370.72 117.31 373.64C142 386.94 165.55 399.62 190.2 412.82Z" fill="#E0E0E0"></path>
<path d="M352.68 384.68C362.6 389.99 372.31 394.79 382.54 399.46C389.579 402.616 397.216 404.219 404.93 404.16C410.85 404.04 418.53 401.71 421.24 395.39C422.9 391.51 421.43 386.85 418.69 383.64C415.95 380.43 412.15 378.34 408.43 376.34L354.74 347.34C337.1 337.82 319.35 328.26 300.4 321.58C292.99 318.97 283.4 314.69 275.4 315.94C270.56 316.69 265.06 318.5 261.88 322.42C257.95 327.26 258.27 331.42 262.88 335.06C269.02 339.85 274.35 342.57 279.79 345.49C304.5 358.8 328 371.48 352.68 384.68Z" fill="#E0E0E0"></path>
<path d="M84.3 34.56L75.48 39.66C75.48 39.26 75.55 38.87 75.55 38.49V35.93C75.55 31.39 72.36 29.54 68.42 31.82C66.7263 32.8585 65.2767 34.2502 64.17 35.9C63.52 30.18 59.04 28.05 53.59 31.2C47.69 34.6 42.92 42.88 42.92 49.68V53.5C42.8779 55.0261 43.1858 56.5414 43.82 57.93L36.49 62.16C35.3306 62.9082 34.3641 63.9194 33.6691 65.1114C32.974 66.3034 32.5701 67.6425 32.49 69.02C32.49 71.54 34.26 72.56 36.49 71.3L84.3 43.7C85.4592 42.9541 86.4257 41.9447 87.1208 40.7544C87.8159 39.564 88.22 38.2262 88.3 36.85C88.25 34.33 86.48 33.3 84.3 34.56Z" fill="#EBEBEB"></path>
<path d="M119.85 53.79L113.2 57.63C113.215 57.3369 113.215 57.0432 113.2 56.75V54.82C113.2 51.39 110.79 50 107.82 51.72C106.541 52.5034 105.446 53.5541 104.61 54.8C104.13 50.48 100.74 48.88 96.61 51.25C92.16 53.82 88.55 60.06 88.55 65.25V68.13C88.5241 69.2834 88.7565 70.428 89.23 71.48L83.7 74.67C82.8295 75.2361 82.1044 75.9991 81.5832 76.8972C81.0621 77.7953 80.7595 78.8034 80.7 79.84C80.7 81.74 82.04 82.52 83.7 81.56L119.78 60.73C120.652 60.1657 121.378 59.4032 121.9 58.5047C122.421 57.6063 122.723 56.5973 122.78 55.56C122.84 53.61 121.5 52.84 119.85 53.79Z" fill="#EBEBEB"></path>
<path d="M282.47 285.76L281.65 287.41L274.06 291.8C274.252 291.327 274.472 290.866 274.72 290.42C274.833 290.205 274.96 289.998 275.1 289.8C275.216 289.595 275.35 289.401 275.5 289.22C275.957 288.586 276.495 288.015 277.1 287.52L277.47 287.24L278 286.89C278.323 286.698 278.657 286.524 279 286.37C279.18 286.29 279.36 286.23 279.54 286.17L279.67 286.12C279.998 286.015 280.332 285.928 280.67 285.86C281.265 285.762 281.868 285.729 282.47 285.76Z" fill="#F69659"></path>
<path opacity="0.6" d="M282.47 285.76L281.65 287.41L274.06 291.8C274.252 291.327 274.472 290.866 274.72 290.42C274.833 290.205 274.96 289.998 275.1 289.8C275.216 289.595 275.35 289.401 275.5 289.22C275.957 288.586 276.495 288.015 277.1 287.52L277.47 287.24L278 286.89C278.323 286.698 278.657 286.524 279 286.37C279.18 286.29 279.36 286.23 279.54 286.17L279.67 286.12C279.998 286.015 280.332 285.928 280.67 285.86C281.265 285.762 281.868 285.729 282.47 285.76Z" fill="black"></path>
<path d="M309.87 314.89C309.87 303.8 303.12 290.89 294.8 286.11C294.37 285.86 293.94 285.65 293.51 285.45L293.39 285.39C293.1 285.26 292.82 285.16 292.53 285.06C292.24 284.96 292.1 284.89 291.89 284.82C291.68 284.75 291.47 284.7 291.26 284.65C291.05 284.6 290.68 284.51 290.4 284.46L289.94 284.4C289.61 284.4 289.29 284.34 288.94 284.33H288.16C285.297 284.425 282.499 285.217 280.011 286.637C277.523 288.057 275.418 290.063 273.88 292.48C272.354 294.614 271.441 297.124 271.24 299.74C271.133 300.512 271.076 301.29 271.07 302.07C271.07 302.14 271.07 302.21 271.07 302.27C271.07 302.33 271.07 302.42 271.07 302.49C271.07 313.58 277.82 326.49 286.14 331.27C286.555 331.508 286.983 331.725 287.42 331.92L287.55 331.98C287.827 332.109 288.111 332.222 288.4 332.32L289.05 332.56L289.68 332.73C289.97 332.8 290.26 332.87 290.54 332.91L291 332.98C291.33 332.98 292.44 333.06 292.57 333.06H292.76C295.623 332.961 298.419 332.168 300.906 330.748C303.394 329.328 305.499 327.325 307.04 324.91C308.562 322.774 309.474 320.264 309.68 317.65C309.788 316.875 309.845 316.093 309.85 315.31C309.85 315.25 309.85 315.18 309.85 315.11C309.85 315.04 309.85 314.97 309.85 314.9L309.87 314.89Z" fill="#37474F"></path>
<path d="M295.216 332.487C301.863 329.658 303.197 317.837 298.195 306.082C293.194 294.328 283.751 287.092 277.103 289.92C270.456 292.748 269.122 304.57 274.124 316.325C279.125 328.079 288.569 335.315 295.216 332.487Z" fill="#455A64"></path>
<path d="M290.54 327.68C288.909 327.632 287.319 327.156 285.93 326.3C279.72 322.71 274.67 313.08 274.67 304.83C274.67 300.39 276.14 296.99 278.67 295.51C280.82 294.27 283.54 294.51 286.34 296.09C292.55 299.68 297.6 309.31 297.6 317.57C297.6 322 296.13 325.4 293.6 326.88C292.669 327.412 291.613 327.688 290.54 327.68ZM281.77 295.61C280.856 295.604 279.955 295.838 279.16 296.29C276.88 297.61 275.57 300.72 275.57 304.83C275.57 312.83 280.42 322.08 286.38 325.52C288.89 326.97 291.29 327.17 293.15 326.1C295.43 324.78 296.74 321.67 296.74 317.57C296.74 309.57 291.89 300.31 285.93 296.87C284.676 296.096 283.243 295.662 281.77 295.61Z" fill="#37474F"></path>
<path d="M291.44 316.4C291.381 316.761 291.409 317.131 291.522 317.479C291.635 317.827 291.83 318.143 292.09 318.4L293.25 319.55C292.955 320.466 292.359 321.255 291.558 321.789C290.757 322.323 289.799 322.57 288.84 322.49L288.57 320.75C288.531 320.398 288.403 320.063 288.198 319.774C287.993 319.485 287.719 319.253 287.4 319.1C286.87 318.96 286.55 319.47 286.67 320.23L286.94 321.97C284.491 320.702 282.483 318.721 281.18 316.29L282.06 315.69C282.203 315.554 282.306 315.381 282.357 315.191C282.409 315 282.406 314.799 282.35 314.61C282.304 314.361 282.227 314.119 282.12 313.89C281.75 313.16 281.12 312.77 280.74 313.04L279.85 313.63C279.254 312.198 278.828 310.701 278.58 309.17C278.348 307.795 278.318 306.394 278.49 305.01L279.66 306.16C279.796 306.306 279.969 306.413 280.16 306.47C280.239 306.494 280.321 306.5 280.402 306.489C280.484 306.477 280.561 306.448 280.63 306.403C280.699 306.359 280.757 306.299 280.8 306.229C280.843 306.16 280.87 306.081 280.88 306C280.935 305.639 280.904 305.27 280.791 304.923C280.678 304.576 280.486 304.26 280.23 304L279.07 302.85C279.36 301.933 279.954 301.143 280.754 300.611C281.555 300.078 282.513 299.834 283.47 299.92L283.75 301.65C283.787 302.002 283.914 302.339 284.119 302.628C284.324 302.917 284.6 303.149 284.92 303.3C285.44 303.44 285.77 302.93 285.65 302.17L285.37 300.43C287.82 301.701 289.831 303.68 291.14 306.11L290.25 306.71C290.109 306.847 290.008 307.02 289.958 307.211C289.909 307.401 289.913 307.602 289.97 307.79C290.007 308.041 290.085 308.284 290.2 308.51C290.57 309.24 291.2 309.63 291.58 309.36L292.47 308.77C293.061 310.211 293.487 311.714 293.74 313.25C293.969 314.619 293.996 316.013 293.82 317.39L292.66 316.24C292.523 316.091 292.346 315.983 292.15 315.93C292.072 315.906 291.99 315.899 291.909 315.911C291.829 315.922 291.752 315.952 291.684 315.997C291.616 316.042 291.559 316.101 291.517 316.171C291.474 316.241 291.448 316.319 291.44 316.4Z" fill="#37474F"></path>
<path d="M367.32 363.71L284.14 315.71C283.227 315.054 282.479 314.193 281.958 313.196C281.437 312.2 281.157 311.095 281.14 309.97C281.14 307.76 282.49 306.74 284.14 307.7L296.82 315L299.15 315.2L373.32 357L367.32 363.71Z" fill="#263238"></path>
<path d="M293 319.35L284 314.18C283.424 313.767 282.952 313.224 282.624 312.595C282.296 311.966 282.12 311.269 282.11 310.56C282.11 309.17 282.95 308.56 284 309.13L293 314.3C293.579 314.712 294.053 315.254 294.383 315.883C294.713 316.512 294.89 317.21 294.9 317.92C294.94 319.31 294.09 320 293 319.35Z" fill="#37474F"></path>
<path d="M293 317.62L284.23 312.55C284.036 312.413 283.876 312.232 283.765 312.022C283.654 311.811 283.594 311.578 283.59 311.34C283.59 310.87 283.88 310.66 284.23 310.86L293 315.93C293.195 316.067 293.354 316.248 293.465 316.458C293.576 316.669 293.636 316.902 293.64 317.14C293.59 317.61 293.3 317.82 293 317.62Z" fill="#F69659"></path>
<path d="M367.32 363.71L379.89 356.45L385.89 349.71L373.32 356.97L367.32 363.71Z" fill="black"></path>
<path d="M381.37 342.08L317.24 305.08L300.67 314.65V317.23L364.81 354.23C370.58 357.56 378.96 358.12 383.53 355.47C385.53 354.35 386.42 352.82 386.4 351.18C386.4 350.76 386.4 349.06 386.4 348.62C386.41 346.41 384.68 344 381.37 342.08Z" fill="#37474F"></path>
<path d="M381.37 341L317.24 304L300.67 313.57V316.15L364.81 353.15C370.58 356.48 378.96 357.04 383.53 354.39C385.53 353.27 386.42 351.74 386.4 350.1C386.4 349.68 386.4 347.98 386.4 347.54C386.41 345.29 384.68 342.87 381.37 341Z" fill="#F69659"></path>
<path opacity="0.3" d="M381.37 341L317.24 304L300.67 313.57V316.15L364.81 353.15C370.58 356.48 378.96 357.04 383.53 354.39C385.53 353.27 386.42 351.74 386.4 350.1C386.4 349.68 386.4 347.98 386.4 347.54C386.41 345.29 384.68 342.87 381.37 341Z" fill="black"></path>
<path d="M383.54 351.78C378.96 354.42 370.54 353.86 364.81 350.53L300.68 313.53L303.56 311.85L305.21 310.9L312.78 306.52L317.22 303.95L381.34 340.95C387.14 344.29 388.11 349.14 383.54 351.78Z" fill="#F69659"></path>
<path d="M305.21 310.88L303.56 311.83C301.75 301.89 295.66 291.83 288.41 287.63C286.619 286.516 284.576 285.873 282.47 285.76C281.888 285.733 281.305 285.766 280.73 285.86C280.392 285.928 280.058 286.015 279.73 286.12L279.6 286.17C279.42 286.23 279.24 286.29 279.06 286.37C278.717 286.524 278.383 286.698 278.06 286.89C277.878 286.997 277.701 287.114 277.53 287.24C277.4 287.324 277.277 287.418 277.16 287.52C276.555 288.015 276.017 288.586 275.56 289.22C275.41 289.401 275.276 289.595 275.16 289.8C275.021 289.998 274.894 290.205 274.78 290.42C274.532 290.866 274.312 291.327 274.12 291.8C273.776 292.143 273.339 292.378 272.862 292.476C272.386 292.574 271.892 292.53 271.44 292.35C272.38 288.35 274.31 285.54 276.89 284.04C279.99 282.26 284.05 282.43 288.47 284.98C296.24 289.51 302.89 300.13 305.21 310.88Z" fill="#F69659"></path>
<path opacity="0.4" d="M305.21 310.88L303.56 311.83C301.75 301.89 295.66 291.83 288.41 287.63C286.619 286.516 284.576 285.873 282.47 285.76C281.888 285.733 281.305 285.766 280.73 285.86C280.392 285.928 280.058 286.015 279.73 286.12L279.6 286.17C279.42 286.23 279.24 286.29 279.06 286.37C278.717 286.524 278.383 286.698 278.06 286.89C277.878 286.997 277.701 287.114 277.53 287.24C277.4 287.324 277.277 287.418 277.16 287.52C276.555 288.015 276.017 288.586 275.56 289.22C275.41 289.401 275.276 289.595 275.16 289.8C275.021 289.998 274.894 290.205 274.78 290.42C274.532 290.866 274.312 291.327 274.12 291.8C273.776 292.143 273.339 292.378 272.862 292.476C272.386 292.574 271.892 292.53 271.44 292.35C272.38 288.35 274.31 285.54 276.89 284.04C279.99 282.26 284.05 282.43 288.47 284.98C296.24 289.51 302.89 300.13 305.21 310.88Z" fill="black"></path>
<path d="M305.23 310.88C302.91 300.13 296.23 289.51 288.43 284.98C284.01 282.43 279.95 282.26 276.85 284.04L284.45 279.65C287.55 277.87 291.59 278.04 296.02 280.59C303.86 285.12 310.5 295.74 312.82 306.49C313.84 311.18 310.07 313.68 305.23 310.88Z" fill="#F69659"></path>
<g opacity="0.2">
<path d="M305.23 310.88C302.91 300.13 296.23 289.51 288.43 284.98C284.01 282.43 279.95 282.26 276.85 284.04L284.45 279.65C287.55 277.87 291.59 278.04 296.02 280.59C303.86 285.12 310.5 295.74 312.82 306.49C313.84 311.18 310.07 313.68 305.23 310.88Z" fill="black"></path>
</g>
<path d="M401 343.71C400.921 343.729 400.839 343.729 400.76 343.71C400.688 343.678 400.623 343.633 400.568 343.576C400.513 343.519 400.47 343.453 400.441 343.379C400.413 343.306 400.399 343.227 400.4 343.149C400.402 343.07 400.419 342.992 400.45 342.92C404.14 334.59 402.82 329.08 400.35 326.71C399.543 325.912 398.502 325.393 397.378 325.231C396.255 325.069 395.109 325.272 394.11 325.81C393.965 325.879 393.799 325.889 393.648 325.836C393.496 325.784 393.371 325.674 393.3 325.53C393.265 325.459 393.244 325.382 393.239 325.303C393.234 325.224 393.245 325.145 393.271 325.071C393.297 324.996 393.338 324.927 393.391 324.869C393.444 324.81 393.508 324.763 393.58 324.73C394.804 324.089 396.198 323.851 397.565 324.051C398.932 324.25 400.201 324.876 401.19 325.84C403.95 328.49 405.49 334.51 401.55 343.4C401.496 343.498 401.416 343.578 401.319 343.633C401.222 343.688 401.112 343.714 401 343.71Z" fill="#263238"></path>
<path d="M404.37 346.73C404.271 346.728 404.175 346.701 404.088 346.653C404.002 346.605 403.929 346.537 403.875 346.454C403.82 346.372 403.787 346.277 403.778 346.179C403.768 346.081 403.783 345.981 403.82 345.89C407.33 337.7 406.04 330.74 403.87 327.26C402.739 325.443 400.946 324.138 398.87 323.62C397.963 323.419 397.025 323.403 396.112 323.575C395.2 323.747 394.331 324.103 393.56 324.62C393.494 324.663 393.42 324.692 393.342 324.706C393.264 324.72 393.185 324.719 393.108 324.702C393.031 324.685 392.958 324.654 392.893 324.609C392.828 324.564 392.773 324.506 392.73 324.44C392.643 324.305 392.613 324.14 392.647 323.983C392.681 323.826 392.775 323.688 392.91 323.6C393.816 322.999 394.834 322.587 395.902 322.389C396.971 322.192 398.069 322.212 399.13 322.45C401.532 323.027 403.612 324.525 404.92 326.62C407.25 330.35 408.65 337.75 404.92 346.36C404.874 346.468 404.797 346.561 404.7 346.626C404.602 346.692 404.488 346.728 404.37 346.73Z" fill="#263238"></path>
<path d="M418 377.33C418 366.23 411.25 353.33 402.93 348.54C402.5 348.29 402.07 348.09 401.64 347.89L401.52 347.83C401.23 347.7 400.95 347.6 400.66 347.49C400.37 347.38 400.23 347.32 400.02 347.26C399.81 347.2 399.6 347.14 399.39 347.09C399.18 347.04 398.81 346.95 398.53 346.9C398.25 346.85 398.22 346.9 398.07 346.84C397.739 346.796 397.405 346.773 397.07 346.77H396.88H396.29C393.426 346.863 390.628 347.653 388.138 349.072C385.648 350.49 383.541 352.494 382 354.91C380.474 357.04 379.561 359.548 379.36 362.16C379.253 362.936 379.196 363.717 379.19 364.5C379.19 364.57 379.19 364.63 379.19 364.7C379.19 364.77 379.19 364.84 379.19 364.92C379.19 376.02 385.94 388.92 394.26 393.71C394.69 393.96 395.12 394.16 395.54 394.36L395.67 394.42C395.96 394.55 396.24 394.65 396.52 394.76C396.8 394.87 396.96 394.93 397.17 394.99C397.38 395.05 397.59 395.11 397.8 395.16C398.01 395.21 398.38 395.3 398.66 395.35L399.12 395.41C399.45 395.41 400.56 395.5 400.69 395.49H400.88C403.744 395.396 406.541 394.604 409.03 393.184C411.518 391.764 413.623 389.758 415.16 387.34C416.684 385.209 417.597 382.702 417.8 380.09C417.907 379.315 417.964 378.533 417.97 377.75C417.97 377.68 417.97 377.62 417.97 377.55C417.97 377.48 417.97 377.41 417.97 377.33H418Z" fill="#37474F"></path>
<path d="M403.356 394.922C410.003 392.094 411.337 380.272 406.335 368.517C401.334 356.763 391.89 349.527 385.243 352.355C378.596 355.184 377.262 367.005 382.264 378.76C387.265 390.514 396.708 397.75 403.356 394.922Z" fill="#455A64"></path>
<path d="M398.68 390.12C397.048 390.068 395.458 389.589 394.07 388.73C387.86 385.15 382.81 375.52 382.81 367.26C382.81 362.82 384.29 359.43 386.81 357.95C388.96 356.71 391.68 356.95 394.48 358.53C400.69 362.11 405.74 371.75 405.74 380C405.74 384.44 404.27 387.83 401.74 389.31C400.811 389.849 399.754 390.129 398.68 390.12ZM389.91 358.05C388.995 358.039 388.093 358.274 387.3 358.73C385.02 360.04 383.71 363.15 383.71 367.26C383.71 375.26 388.56 384.51 394.52 387.95C397.03 389.4 399.43 389.61 401.29 388.53C403.57 387.22 404.88 384.11 404.88 380C404.88 372 400.03 362.75 394.07 359.31C392.818 358.532 391.383 358.097 389.91 358.05Z" fill="#37474F"></path>
<path d="M399.58 378.83C399.524 379.191 399.554 379.56 399.667 379.907C399.78 380.255 399.973 380.571 400.23 380.83L401.39 381.98C401.095 382.896 400.499 383.685 399.698 384.219C398.897 384.753 397.939 385 396.98 384.92L396.71 383.18C396.67 382.83 396.542 382.496 396.337 382.209C396.132 381.922 395.858 381.692 395.54 381.54C395.01 381.4 394.69 381.91 394.81 382.67L395.08 384.41C392.635 383.136 390.629 381.157 389.32 378.73L390.2 378.13C390.342 377.993 390.443 377.82 390.494 377.63C390.545 377.44 390.544 377.239 390.49 377.05C390.444 376.801 390.367 376.559 390.26 376.33C389.89 375.59 389.26 375.21 388.88 375.47L387.99 376.07C387.395 374.634 386.968 373.134 386.72 371.6C386.488 370.225 386.458 368.824 386.63 367.44L387.8 368.59C387.938 368.736 388.11 368.845 388.3 368.91C388.379 368.934 388.461 368.94 388.543 368.929C388.624 368.917 388.701 368.888 388.77 368.843C388.839 368.799 388.897 368.739 388.94 368.669C388.983 368.6 389.011 368.521 389.02 368.44C389.075 368.079 389.045 367.71 388.933 367.363C388.82 367.016 388.627 366.7 388.37 366.44L387.21 365.29C387.502 364.374 388.096 363.584 388.895 363.049C389.695 362.515 390.652 362.268 391.61 362.35L391.89 364.09C391.929 364.441 392.056 364.776 392.261 365.063C392.466 365.35 392.741 365.58 393.06 365.73C393.58 365.88 393.91 365.37 393.79 364.6L393.51 362.86C395.959 364.133 397.969 366.112 399.28 368.54L398.39 369.14C398.251 369.278 398.151 369.451 398.102 369.641C398.052 369.832 398.055 370.031 398.11 370.22C398.147 370.471 398.225 370.714 398.34 370.94C398.71 371.68 399.34 372.06 399.72 371.8L400.61 371.2C401.199 372.641 401.625 374.144 401.88 375.68C402.109 377.052 402.136 378.45 401.96 379.83L400.8 378.68C400.66 378.532 400.485 378.422 400.29 378.36C400.212 378.336 400.13 378.329 400.049 378.341C399.969 378.352 399.892 378.382 399.824 378.427C399.756 378.472 399.699 378.531 399.657 378.601C399.615 378.671 399.588 378.749 399.58 378.83Z" fill="#37474F"></path>
<path d="M393.21 333.85L391.12 321.36L369.93 345C368.82 346.25 369.13 347.81 370.93 348.85C372.179 349.483 373.56 349.813 374.96 349.813C376.36 349.813 377.741 349.483 378.99 348.85C379.361 348.639 379.699 348.372 379.99 348.06L393.21 333.85Z" fill="#37474F"></path>
<path d="M397.74 339.15L392 305.56L384.83 305.96L387.73 323.01L389.82 335.51L390.56 339.63C390.635 339.89 390.763 340.133 390.935 340.343C391.107 340.552 391.319 340.725 391.56 340.85C392.351 341.249 393.224 341.457 394.11 341.457C394.996 341.457 395.869 341.249 396.66 340.85C397.002 340.724 397.292 340.49 397.487 340.182C397.683 339.875 397.771 339.512 397.74 339.15Z" fill="#F69659"></path>
<path d="M388.48 307.93C390.468 307.93 392.08 306.999 392.08 305.85C392.08 304.701 390.468 303.77 388.48 303.77C386.492 303.77 384.88 304.701 384.88 305.85C384.88 306.999 386.492 307.93 388.48 307.93Z" fill="#F69659"></path>
<path opacity="0.3" d="M388.48 307.93C390.468 307.93 392.08 306.999 392.08 305.85C392.08 304.701 390.468 303.77 388.48 303.77C386.492 303.77 384.88 304.701 384.88 305.85C384.88 306.999 386.492 307.93 388.48 307.93Z" fill="black"></path>
<path d="M390.3 338C390.84 341.21 385.5 345 386.52 350.8C387.54 356.6 390.16 372.27 390.16 372.27C390.81 375.47 392.58 377.95 394.75 378.49C396.42 378.83 397.8 377.49 397.37 374.01C397.37 374.01 394.15 355.09 393.65 352.14C393.15 349.19 398.89 347.14 400.65 347.49C402.994 348.393 405.123 349.775 406.9 351.55C406.44 349.55 406.19 348.69 405.54 346.02C404.08 340.02 397.75 339.21 396.95 334.54L390.3 338Z" fill="#F69659"></path>
<path d="M396.16 374.58L394.47 364.38C394.289 363.695 393.95 363.062 393.479 362.532C393.008 362.002 392.419 361.59 391.76 361.33C390.45 360.84 389.55 361.41 389.76 362.6L391.45 372.8C391.639 373.477 391.983 374.101 392.455 374.622C392.928 375.142 393.515 375.546 394.17 375.8C395.46 376.33 396.36 375.77 396.16 374.58Z" fill="#37474F"></path>
<path d="M394.57 373.88L392.92 363.88C392.857 363.654 392.741 363.446 392.583 363.272C392.425 363.099 392.229 362.964 392.01 362.88C391.57 362.71 391.27 362.88 391.34 363.3L392.99 373.3C393.054 373.526 393.169 373.734 393.327 373.907C393.485 374.081 393.681 374.215 393.9 374.3C394.34 374.47 394.64 374.28 394.57 373.88Z" fill="#F69659"></path>
<path d="M342.77 117.69C327.16 127.81 309.37 125.31 302.14 124.96C292.46 124.5 283.38 115.68 286.14 105.5C287.44 100.63 290.74 97.2199 296 96.7399C295.252 95.4434 294.94 93.9412 295.108 92.4539C295.277 90.9666 295.918 89.5726 296.937 88.4763C297.956 87.38 299.3 86.6392 300.771 86.3627C302.242 86.0862 303.763 86.2885 305.11 86.9399C304.82 75.9999 307.83 65.3899 315 56.9999C318.71 52.6499 327.23 55.9399 332.36 58.4599C337.49 60.9799 341.82 64.8499 346.07 68.6799C347.73 70.1799 350.29 70.6799 351.22 72.6799C355.125 80.5081 356.545 89.3424 355.29 97.9999C354.2 105.34 351.78 111.84 342.77 117.69Z" fill="#263238"></path>
<path d="M340.81 316C340.669 316.035 340.539 316.107 340.436 316.209C340.332 316.311 340.257 316.439 340.22 316.58C339.85 317.82 339.87 319.23 339.62 320.5C339.111 322.603 338.942 324.774 339.12 326.93C339.45 328.53 341.6 330.08 345.65 331.22C348.828 332.215 351.799 333.777 354.42 335.83C356.86 338.04 362.07 339.89 365.59 340C369.72 340.12 374.02 339 375.02 336C375.44 334.76 375.76 332.61 369.86 330.29C367.862 329.568 365.933 328.664 364.1 327.59C361.36 325.97 357.25 323.83 354.97 321.71C352.896 319.609 351.696 316.801 351.61 313.85C350.82 313.593 349.978 313.538 349.161 313.688C348.344 313.838 347.577 314.19 346.93 314.711C346.283 315.232 345.776 315.906 345.454 316.673C345.133 317.439 345.008 318.273 345.09 319.1C344.81 319.25 344.46 318.99 344.36 318.68C344.303 318.366 344.266 318.049 344.25 317.73C344.172 317.39 344.006 317.076 343.77 316.82C343.533 316.564 343.233 316.374 342.9 316.27C342.239 315.998 341.518 315.905 340.81 316Z" fill="#37474F"></path>
<path d="M332 206.13L337.73 246.23C336.402 251.201 335.35 256.242 334.58 261.33C333.69 269.1 339.17 299.54 340.81 310.33C341.113 312.337 341.136 314.376 340.88 316.39C341.46 321.08 344.98 322.53 348.62 325.18C350.43 326.51 358.39 331.34 363.19 332.31C367.1 333.11 370.1 330.77 367.7 329.31C362.927 326.726 358.604 323.387 354.9 319.42C352.38 316.7 351.9 314.08 352.25 309.03C352.6 303.98 355.05 257.61 356.08 246.61C357.81 228.12 358.74 177.91 357.21 165.09L307.86 169" fill="#FFA8A7"></path>
<path d="M358.16 176.33C357.52 168.11 355.61 160.96 354.56 152.25C347.31 157.36 325.76 158.38 317.06 151.52L328.48 200.85L335.71 245.5C335.71 245.5 334.97 250.37 334.22 255.73C333.538 262.598 333.746 269.525 334.84 276.34C335.84 282.34 337.99 293.14 337.99 293.14C346.93 297.81 353.71 293.03 353.71 293.03C353.71 293.03 354.58 281.03 356.25 263.36C358.08 243.98 358.51 226.36 358.61 213.44C359.2 201.072 359.05 188.68 358.16 176.33Z" fill="#37474F"></path>
<path d="M329.23 205.67L333.72 193.76C333.72 193.76 344.34 187.18 351.5 181.92C351.5 181.92 349.44 191.68 337.14 196.59L332.38 206L332.9 229L329.23 205.67Z" fill="#263238"></path>
<path d="M250.75 240.26C249.462 239.968 248.116 240.069 246.885 240.55C245.655 241.032 244.598 241.871 243.85 242.96C242.14 245.25 241.36 248.88 240.48 251.51C239.921 252.833 239.155 254.058 238.21 255.14C237.21 256.55 234.56 259.4 233.68 260.89C232.99 262.097 232.487 263.402 232.19 264.76C231.796 266.232 231.664 267.762 231.8 269.28C232.07 271.63 233.31 274.95 235.33 276.19C235.862 276.558 236.471 276.801 237.11 276.902C237.749 277.002 238.402 276.958 239.022 276.772C239.641 276.585 240.211 276.262 240.688 275.825C241.166 275.389 241.539 274.85 241.78 274.25C242.18 273.36 242.59 272.48 242.94 271.57C243.631 269.84 244.513 268.194 245.57 266.66C246.952 264.71 248.56 262.931 250.36 261.36C250.56 261.19 252.74 258.96 252.91 258.78C255.47 256.07 255.57 257.78 255.75 256.78C255.9 255.99 257.34 246.35 257.34 243.73C257.34 243.16 256.55 243.13 255.79 242.73C254.58 242.17 252.78 240.8 250.75 240.26Z" fill="#455A64"></path>
<path d="M256.61 245.15C253.67 242.48 249.8 246.96 247.29 252.3C244.78 257.64 242.29 259.03 240.01 264.62C238.21 269.12 241.76 272.31 243.31 270.7C243.943 269.302 244.7 267.964 245.57 266.7C246.952 264.75 248.56 262.971 250.36 261.4C250.56 261.23 250.77 261.06 250.95 260.89C253.635 258.605 256.827 256.993 260.26 256.19C261.03 255.97 255.12 247.98 256.77 245.95C256.847 245.856 256.896 245.741 256.91 245.62C256.833 245.45 256.732 245.291 256.61 245.15Z" fill="#FFA8A7"></path>
<path d="M312 242.64C310.86 246.77 308.75 250.31 297 251.42C276.45 253.42 256.1 256.81 256.1 256.81C256.1 256.81 252.45 257.28 250.34 252.81C247.96 247.81 253.81 244.5 253.81 244.5C255.884 244.305 257.901 243.711 259.75 242.75C264.33 240.44 269.33 237.67 273.66 235.94C302.86 224.31 312 242.64 312 242.64Z" fill="#FFA8A7"></path>
<path d="M312.2 159.58C308.014 164.424 304.972 170.149 303.3 176.33C302.47 179.33 301.74 182.87 301.1 186.45C300.69 188.75 300.33 191.05 300.01 193.21L293.91 231C286.04 230.87 281.78 231.69 272.09 236.5L265.7 239.58C265.7 239.58 264.25 242.58 265.2 248.78C265.95 253.68 269.13 255 269.13 255C269.13 255 287.86 253.37 294.13 252.63C300.91 251.84 308.13 252.3 315.06 239.24C317.561 234.691 319.831 230.018 321.86 225.24L333.71 193.79C333.71 193.79 353.2 188.51 357.11 170.03L312.2 159.58Z" fill="#37474F"></path>
<path d="M293 238.32C293.17 236.47 293.48 233.89 293.88 231H292.6C292.593 233.446 292.727 235.89 293 238.32Z" fill="#263238"></path>
<path d="M359.65 154C340.37 120.73 347.84 110.33 345.28 102.93C352.28 103.01 358.65 105.04 362.96 115.55C365.07 120.69 370.12 141.14 373.96 149.2C377.901 157.138 383.333 164.244 389.96 170.13C391.42 171.39 395.19 172.13 396.31 172.6C399.31 173.7 400.07 174.29 399.31 176.72C398.871 177.89 398.134 178.924 397.17 179.72C395.607 181.171 393.829 182.372 391.9 183.28C390.37 183.98 387.27 185.35 385.56 184.8C384.69 184.53 383.67 183.24 383.01 182.63C382.12 181.79 381.25 180.93 380.41 180.05C378.8 178.39 377.27 176.66 375.79 174.89C367.57 165.08 362.89 159.58 359.65 154Z" fill="#FFA8A7"></path>
<path d="M358.57 119.78C354.452 113.921 350.015 108.293 345.28 102.92C339.893 102.126 334.418 102.126 329.03 102.92C323.635 103.841 318.348 105.308 313.25 107.3C309.49 109.3 311.31 121.43 312.64 129.43L315.07 139.62L315.44 141.18C315.51 141.45 315.56 141.72 315.63 142C316.555 145.908 316.043 150.018 314.19 153.58C310.05 161.47 307.69 163.51 304.84 170.75C313.98 184.21 351.9 185.7 358.05 169.55C358.05 169.55 356.37 161.66 354.98 153.99C355.12 147.62 355.11 140.07 355.16 138.6C362.89 133.84 362.89 126.06 358.57 119.78Z" fill="#F69659"></path>
<path opacity="0.55" d="M358.57 119.78C354.452 113.921 350.015 108.293 345.28 102.92C339.893 102.126 334.418 102.126 329.03 102.92C323.635 103.841 318.348 105.308 313.25 107.3C309.49 109.3 311.31 121.43 312.64 129.43L315.07 139.62L315.44 141.18C315.51 141.45 315.56 141.72 315.63 142C316.555 145.908 316.043 150.018 314.19 153.58C310.05 161.47 307.69 163.51 304.84 170.75C313.98 184.21 351.9 185.7 358.05 169.55C358.05 169.55 356.37 161.66 354.98 153.99C355.12 147.62 355.11 140.07 355.16 138.6C362.89 133.84 362.89 126.06 358.57 119.78Z" fill="#F69659"></path>
<path opacity="0.1" d="M346.34 137.81C346.34 137.81 340.41 143.05 333.12 140.98C331.082 140.473 329.209 139.45 327.681 138.008C326.154 136.566 325.024 134.756 324.4 132.75C324.4 132.75 324.17 140.95 333.33 143.15C335.785 143.772 338.374 143.589 340.717 142.628C343.059 141.666 345.031 139.977 346.34 137.81Z" fill="black"></path>
<path d="M327 49.58C332.56 48.2502 338.398 48.7123 343.68 50.9C360.12 46.67 369.07 69.24 353.68 76.98C353.68 76.98 350.28 92.74 337.54 94.44L324.97 94.77C321.89 89.13 311.83 86.49 310.97 71.77C309.28 59.53 318.58 51.32 327 49.58Z" fill="#263238"></path>
<path d="M349.44 59.4099C351.99 60.9799 355.05 67.5099 354.49 81.0699C354.01 92.5599 350.23 95.3299 348.34 96.0699C346.45 96.8099 342.86 96.2899 339.34 95.6399L339.92 102.88C339.92 102.88 343.61 106.05 343.25 109.21C342.89 112.37 336.46 112.21 331.35 110.21C328.461 109.07 325.966 107.114 324.17 104.58L323.17 86.8899C323.17 86.8899 320.4 88.3199 318.6 86.3799C315.44 82.9699 315.47 78.3799 317.76 76.1399C320.05 73.8999 324.32 75.1399 325.17 78.3399C325.17 78.3399 330.17 78.1199 337.43 73.7299C345.38 68.9999 347.36 64.1999 349.44 59.4099Z" fill="#FFA8A7"></path>
<path d="M339.63 77.63C339.642 77.8229 339.616 78.0163 339.552 78.1988C339.488 78.3813 339.389 78.5492 339.259 78.6927C339.13 78.8361 338.973 78.9523 338.798 79.0343C338.623 79.1162 338.433 79.1624 338.24 79.17C337.848 79.1727 337.471 79.021 337.191 78.7478C336.91 78.4745 336.748 78.1017 336.74 77.71C336.719 77.5111 336.739 77.31 336.799 77.1194C336.86 76.9287 336.959 76.7526 337.09 76.602C337.222 76.4515 337.383 76.3298 337.564 76.2447C337.745 76.1595 337.942 76.1127 338.142 76.1071C338.342 76.1016 338.541 76.1375 338.726 76.2125C338.911 76.2875 339.079 76.4001 339.219 76.5431C339.359 76.6861 339.467 76.8565 339.538 77.0436C339.609 77.2306 339.64 77.4303 339.63 77.63Z" fill="#263238"></path>
<path d="M339.34 86.14L344.56 88.14C344.444 88.4895 344.258 88.8119 344.014 89.0882C343.771 89.3646 343.474 89.5892 343.142 89.7487C342.81 89.9082 342.449 89.9993 342.081 90.0167C341.713 90.0341 341.346 89.9774 341 89.85C340.297 89.5664 339.732 89.0214 339.422 88.3296C339.113 87.6379 339.083 86.853 339.34 86.14Z" fill="#B16668"></path>
<path d="M341.72 89.42C341.719 89.616 341.692 89.811 341.64 90C341.422 89.975 341.207 89.9246 341 89.85C340.47 89.6359 340.015 89.2704 339.691 88.7991C339.367 88.3279 339.19 87.7717 339.18 87.2C339.28 87.1941 339.38 87.1941 339.48 87.2C340.071 87.2 340.638 87.4332 341.057 87.849C341.477 88.2648 341.715 88.8294 341.72 89.42Z" fill="#F28F8F"></path>
<path d="M352.35 73.7L349.46 71.62C349.586 71.4246 349.75 71.2569 349.943 71.1271C350.136 70.9974 350.353 70.9082 350.581 70.8652C350.81 70.8221 351.044 70.8261 351.271 70.8768C351.498 70.9274 351.712 71.0238 351.9 71.16C352.287 71.4446 352.549 71.8671 352.633 72.34C352.717 72.8129 352.616 73.2998 352.35 73.7Z" fill="#263238"></path>
<path d="M351.61 77.0799C351.621 77.2725 351.593 77.4654 351.529 77.6473C351.465 77.8292 351.365 77.9966 351.236 78.1398C351.107 78.283 350.951 78.3991 350.776 78.4815C350.602 78.564 350.413 78.611 350.22 78.6199C349.828 78.6227 349.451 78.471 349.17 78.1977C348.89 77.9245 348.728 77.5516 348.72 77.1599C348.699 76.9611 348.719 76.76 348.779 76.5693C348.84 76.3787 348.939 76.2025 349.07 76.052C349.202 75.9014 349.363 75.7798 349.544 75.6946C349.725 75.6094 349.922 75.5626 350.122 75.5571C350.322 75.5515 350.521 75.5874 350.706 75.6625C350.891 75.7375 351.059 75.85 351.199 75.9931C351.339 76.1361 351.447 76.3065 351.518 76.4935C351.589 76.6806 351.62 76.8802 351.61 77.0799Z" fill="#263238"></path>
<path d="M344.79 76.1699L344.86 84.8699L349.46 83.5399L344.79 76.1699Z" fill="#F28F8F"></path>
<path d="M339.36 95.68C335.67 95.13 328.1 92.81 326.98 89.78C327.428 91.3073 328.331 92.6612 329.57 93.66C331.81 95.66 339.57 97.99 339.57 97.99L339.36 95.68Z" fill="#F28F8F"></path>
<path d="M382.23 180.07C383.78 181.43 385.66 185.35 387.85 187C390.04 188.65 396.23 188 396.23 188L396.18 183.23L389.27 180L382.23 180.07Z" fill="#F28F8F"></path>
<path d="M389.81 185.19L386.32 179.19L401.08 170.67C401.358 170.529 401.67 170.468 401.981 170.495C402.292 170.521 402.59 170.634 402.84 170.82C403.557 171.288 404.155 171.919 404.584 172.661C405.013 173.402 405.262 174.234 405.31 175.09C405.338 175.389 405.289 175.689 405.168 175.964C405.047 176.239 404.859 176.478 404.62 176.66L389.81 185.19Z" fill="#455A64"></path>
<path d="M390.53 183.6C390.53 185.17 389.43 185.81 388.07 185.02C387.351 184.553 386.753 183.923 386.323 183.181C385.894 182.439 385.646 181.606 385.6 180.75C385.6 179.18 386.71 178.55 388.07 179.33C388.786 179.799 389.382 180.43 389.809 181.172C390.237 181.913 390.483 182.745 390.53 183.6Z" fill="#37474F"></path>
<path d="M387.67 180.94C387.47 180.807 387.229 180.75 386.99 180.78L372.55 189.1L372.22 189.3L373.9 192.24L388.33 183.94L388.73 183.69C388.856 183.512 388.916 183.297 388.9 183.08C388.877 182.652 388.753 182.235 388.54 181.864C388.326 181.492 388.028 181.176 387.67 180.94Z" fill="#E0E0E0"></path>
<path d="M391.3 305.5L371.57 189.74L365.94 190.06L383.47 292.84L385.11 302.65L385.69 305.89C385.741 306.104 385.838 306.305 385.975 306.477C386.111 306.65 386.284 306.791 386.48 306.89C387.1 307.205 387.785 307.37 388.48 307.37C389.175 307.37 389.861 307.205 390.48 306.89C390.753 306.785 390.983 306.59 391.132 306.338C391.281 306.085 391.34 305.79 391.3 305.5Z" fill="#37474F"></path>
<path d="M371.8 191.11H366.12L367.9 201.59L372.42 202.66C372.87 202.76 373.33 202.84 373.81 202.9L371.8 191.11Z" fill="#263238"></path>
<path d="M366.77 191.13C367.39 191.445 368.075 191.61 368.77 191.61C369.465 191.61 370.151 191.445 370.77 191.13C371.011 191.048 371.221 190.892 371.369 190.685C371.518 190.478 371.597 190.23 371.597 189.975C371.597 189.72 371.518 189.472 371.369 189.265C371.221 189.057 371.011 188.902 370.77 188.82C370.151 188.505 369.465 188.34 368.77 188.34C368.075 188.34 367.39 188.505 366.77 188.82C366.529 188.902 366.32 189.057 366.171 189.265C366.023 189.472 365.943 189.72 365.943 189.975C365.943 190.23 366.023 190.478 366.171 190.685C366.32 190.892 366.529 191.048 366.77 191.13Z" fill="#455A64"></path>
<path d="M372.42 200.13C375.67 200.9 380.06 200.5 382.24 199.24C383.16 198.71 383.54 198.11 383.42 197.53C383.26 196.75 381.92 188.63 381.92 188.63H359.74L361.25 197.55L372.42 200.13Z" fill="#37474F"></path>
<path d="M370.92 191.21C374.16 191.97 378.56 191.57 380.73 190.31C381.64 189.79 382.02 189.2 381.92 188.63C381.78 187.84 380.7 187.1 378.81 186.63L367.63 184L359.74 188.56L370.92 191.21Z" fill="#455A64"></path>
<path d="M365.3 193.24L348.8 202.78L350.49 205.7L367 196.22C367.93 195.67 366.63 192.67 365.3 193.24Z" fill="#E0E0E0"></path>
<path d="M341.09 212.75L337.6 206.75L352.35 198.23C352.632 198.094 352.946 198.037 353.257 198.065C353.569 198.094 353.867 198.206 354.12 198.39C354.837 198.856 355.434 199.484 355.861 200.225C356.289 200.965 356.535 201.796 356.58 202.65C356.61 202.949 356.563 203.251 356.442 203.526C356.321 203.801 356.131 204.04 355.89 204.22L341.09 212.75Z" fill="#455A64"></path>
<path d="M341.8 211.15C341.8 212.72 340.7 213.36 339.34 212.58C338.624 212.111 338.028 211.48 337.601 210.738C337.174 209.997 336.927 209.165 336.88 208.31C336.88 206.74 337.98 206.1 339.34 206.89C340.057 207.356 340.654 207.984 341.081 208.725C341.509 209.465 341.755 210.296 341.8 211.15Z" fill="#263238"></path>
<path d="M385.7 192.33L383.27 190.9C382.836 190.728 382.363 190.674 381.901 190.744C381.439 190.815 381.004 191.006 380.64 191.3C379.584 192.065 378.723 193.069 378.127 194.23C377.531 195.391 377.217 196.675 377.21 197.98C377.181 198.447 377.278 198.914 377.491 199.331C377.703 199.748 378.025 200.1 378.42 200.35L380.85 201.78C381.285 201.952 381.757 202.006 382.219 201.935C382.681 201.865 383.117 201.673 383.48 201.38C384.538 200.615 385.401 199.612 385.998 198.451C386.596 197.29 386.912 196.005 386.92 194.7C386.943 194.233 386.843 193.767 386.629 193.351C386.414 192.935 386.094 192.583 385.7 192.33Z" fill="#455A64"></path>
<path d="M380.78 201.74L378.4 200.34C378.004 200.09 377.683 199.738 377.47 199.321C377.258 198.904 377.161 198.437 377.19 197.97C377.162 196.812 377.409 195.664 377.91 194.62L380.34 196.05C379.839 197.094 379.592 198.242 379.62 199.4C379.594 199.857 379.687 200.313 379.891 200.723C380.094 201.134 380.401 201.484 380.78 201.74Z" fill="#263238"></path>
<path d="M383.47 201.38C384.528 200.615 385.391 199.612 385.988 198.451C386.586 197.29 386.902 196.005 386.91 194.7C386.79 192.31 385.06 191.42 383.05 192.7C381.994 193.465 381.132 194.469 380.536 195.63C379.941 196.791 379.627 198.075 379.62 199.38C379.73 201.79 381.46 202.68 383.47 201.38Z" fill="#37474F"></path>
<path d="M381.78 201.21C380.6 201.27 380.4 199.94 380.38 199.36C380.394 198.19 380.679 197.039 381.214 195.997C381.748 194.956 382.517 194.053 383.46 193.36C383.839 193.095 384.28 192.933 384.74 192.89C385.93 192.83 386.12 194.16 386.15 194.74C386.134 195.911 385.847 197.062 385.311 198.103C384.775 199.144 384.004 200.047 383.06 200.74C382.683 201.008 382.241 201.17 381.78 201.21Z" fill="#263238"></path>
<path d="M383.46 193.36C383.805 193.124 384.198 192.967 384.61 192.9C384.811 193.294 384.921 193.728 384.93 194.17C384.914 195.341 384.627 196.492 384.091 197.533C383.555 198.574 382.784 199.477 381.84 200.17C381.498 200.403 381.109 200.56 380.7 200.63C380.499 200.236 380.39 199.802 380.38 199.36C380.394 198.19 380.679 197.039 381.214 195.997C381.748 194.956 382.517 194.053 383.46 193.36Z" fill="#F69659"></path>
<path d="M383.34 166.55C392.1 169.97 400.41 170.03 403.83 175.12C404.65 177.54 405.64 183.19 403.91 185.36C401.42 188.5 395.13 191.05 392.3 187.65C391.642 186.729 391.12 185.719 390.75 184.65L393.75 182.9C394.75 180.77 392.28 176.9 390.19 176.9L388.04 178.15L389.33 172.62L383.34 166.55Z" fill="#FFA8A7"></path>
<path d="M338.64 185.92C344.51 189.68 352.58 192.43 355.77 194.92C358.96 197.41 360.11 204.16 358.55 206.85C356.99 209.54 350.03 212.75 347.62 212.12C345.21 211.49 345.15 210.44 345.15 210.44L347.01 209.36C348.29 208.58 347.18 203.58 343.92 203.11L340.15 205.28C337.988 203.667 336.342 201.461 335.41 198.93L338.64 185.92Z" fill="#FFA8A7"></path>
<path d="M306.33 162.79C298.33 136.26 299.52 118.04 302.56 113.35C304.87 109.78 309.83 107.65 314.77 106.72C318.22 109.72 319.59 117.63 316.77 128.94C317.479 137.761 318.816 146.519 320.77 155.15C322.57 163.1 338.04 184.06 344.54 189.26C348.72 192.61 342.4 200.31 336.48 201.26C331.72 191.92 311.07 178.5 306.33 162.79Z" fill="#FFA8A7"></path>
<path d="M114.08 313.71L113.26 315.36L105.68 319.75C105.87 319.279 106.09 318.822 106.34 318.38C106.567 317.958 106.824 317.554 107.11 317.17C107.576 316.54 108.117 315.969 108.72 315.47L109.09 315.19L109.62 314.84C109.943 314.647 110.277 314.474 110.62 314.32C110.81 314.24 110.99 314.18 111.17 314.12L111.3 314.07C111.627 313.964 111.961 313.88 112.3 313.82C112.887 313.714 113.484 313.677 114.08 313.71Z" fill="#F69659"></path>
<path opacity="0.6" d="M114.08 313.71L113.26 315.36L105.68 319.75C105.87 319.279 106.09 318.822 106.34 318.38C106.567 317.958 106.824 317.554 107.11 317.17C107.576 316.54 108.117 315.969 108.72 315.47L109.09 315.19L109.62 314.84C109.943 314.647 110.277 314.474 110.62 314.32C110.81 314.24 110.99 314.18 111.17 314.12L111.3 314.07C111.627 313.964 111.961 313.88 112.3 313.82C112.887 313.714 113.484 313.677 114.08 313.71Z" fill="black"></path>
<path d="M141.48 342.85C141.48 331.76 134.74 318.85 126.42 314.07C126.001 313.831 125.571 313.615 125.13 313.42L125.01 313.36C124.731 313.229 124.443 313.116 124.15 313.02C123.93 312.94 123.72 312.85 123.5 312.78L122.87 312.61C122.58 312.54 122.3 312.47 122.02 312.43L121.56 312.36C121.228 312.32 120.894 312.299 120.56 312.3H120.37H119.77C116.909 312.398 114.114 313.192 111.628 314.612C109.142 316.032 107.039 318.035 105.5 320.45C103.974 322.584 103.061 325.094 102.86 327.71C102.752 328.485 102.695 329.267 102.69 330.05C102.685 330.117 102.685 330.183 102.69 330.25C102.69 330.32 102.69 330.39 102.69 330.47C102.69 341.56 109.43 354.47 117.75 359.25C118.19 359.5 118.62 359.71 119.04 359.91L119.16 359.97C119.45 360.1 119.74 360.2 120.02 360.3L120.67 360.54C120.88 360.61 121.09 360.66 121.3 360.71C121.51 360.76 121.87 360.85 122.16 360.9L122.61 360.96C122.94 360.96 124.06 361.04 124.18 361.04H124.38C127.243 360.944 130.04 360.152 132.528 358.732C135.017 357.311 137.121 355.306 138.66 352.89C140.182 350.755 141.092 348.244 141.29 345.63C141.397 344.858 141.454 344.079 141.46 343.3C141.465 343.233 141.465 343.167 141.46 343.1C141.46 343.02 141.46 342.95 141.46 342.88L141.48 342.85Z" fill="#37474F"></path>
<path d="M126.823 360.436C133.47 357.607 134.804 345.786 129.802 334.031C124.801 322.277 115.357 315.041 108.71 317.869C102.063 320.697 100.729 332.519 105.731 344.274C110.732 356.028 120.176 363.264 126.823 360.436Z" fill="#455A64"></path>
<path d="M122.16 355.63C120.529 355.582 118.939 355.106 117.55 354.25C111.34 350.67 106.29 341.03 106.29 332.78C106.29 328.34 107.76 324.94 110.29 323.46C112.44 322.22 115.16 322.46 117.96 324.05C124.17 327.63 129.22 337.26 129.22 345.52C129.22 349.95 127.75 353.35 125.22 354.83C124.29 355.365 123.233 355.642 122.16 355.63ZM113.39 323.57C112.476 323.558 111.575 323.789 110.78 324.24C108.5 325.56 107.19 328.67 107.19 332.78C107.19 340.78 112.04 350.03 118 353.47C120.51 354.92 122.91 355.12 124.77 354.05C127.05 352.73 128.36 349.62 128.36 345.52C128.36 337.52 123.51 328.27 117.55 324.83C116.298 324.053 114.863 323.619 113.39 323.57Z" fill="#37474F"></path>
<path d="M123.05 344.35C122.995 344.711 123.025 345.08 123.138 345.427C123.25 345.774 123.443 346.09 123.7 346.35L124.86 347.5C124.569 348.416 123.974 349.206 123.175 349.741C122.375 350.275 121.418 350.521 120.46 350.44L120.19 348.7C120.154 348.338 120.026 347.992 119.817 347.694C119.609 347.397 119.327 347.158 119 347C118.47 346.86 118.14 347.37 118.26 348.14L118.54 349.87C116.09 348.602 114.082 346.621 112.78 344.19L113.66 343.6C113.8 343.46 113.901 343.285 113.95 343.093C113.999 342.902 113.996 342.7 113.94 342.51C113.903 342.262 113.825 342.022 113.71 341.8C113.35 341.06 112.71 340.67 112.33 340.94L111.44 341.53C110.851 340.096 110.428 338.6 110.18 337.07C109.948 335.695 109.918 334.294 110.09 332.91L111.25 334.06C111.39 334.208 111.565 334.318 111.76 334.38C111.838 334.402 111.921 334.407 112.002 334.394C112.082 334.381 112.159 334.351 112.227 334.305C112.294 334.259 112.351 334.199 112.393 334.129C112.435 334.059 112.461 333.981 112.47 333.9C112.529 333.539 112.501 333.169 112.388 332.821C112.275 332.473 112.08 332.157 111.82 331.9L110.66 330.75C110.955 329.835 111.552 329.046 112.353 328.514C113.154 327.982 114.112 327.737 115.07 327.82L115.34 329.55C115.378 329.903 115.507 330.24 115.714 330.529C115.921 330.818 116.198 331.049 116.52 331.2C117.04 331.34 117.37 330.83 117.25 330.07L116.97 328.33C119.417 329.601 121.424 331.581 122.73 334.01L121.85 334.61C121.708 334.746 121.605 334.919 121.554 335.109C121.503 335.3 121.505 335.501 121.56 335.69C121.606 335.939 121.683 336.181 121.79 336.41C122.16 337.15 122.79 337.53 123.17 337.27L124.06 336.67C124.66 338.108 125.086 339.611 125.33 341.15C125.562 342.521 125.592 343.92 125.42 345.3L124.25 344.15C124.116 343.999 123.943 343.888 123.75 343.83C123.669 343.809 123.584 343.806 123.502 343.822C123.42 343.838 123.343 343.873 123.276 343.922C123.208 343.972 123.153 344.037 123.114 344.111C123.075 344.185 123.053 344.266 123.05 344.35Z" fill="#37474F"></path>
<path d="M198.93 391.66L115.75 343.66C114.838 343.003 114.091 342.142 113.57 341.145C113.049 340.149 112.769 339.044 112.75 337.92C112.75 335.71 114.1 334.69 115.75 335.65L128.44 343L130.77 343.21L204.94 384.97L198.93 391.66Z" fill="#263238"></path>
<path d="M124.66 347.3L115.66 342.13C115.081 341.718 114.607 341.176 114.277 340.547C113.947 339.918 113.77 339.22 113.76 338.51C113.76 337.12 114.61 336.51 115.66 337.08L124.66 342.25C125.236 342.663 125.708 343.206 126.036 343.835C126.364 344.464 126.54 345.161 126.55 345.87C126.55 347.26 125.71 347.9 124.66 347.3Z" fill="#37474F"></path>
<path d="M124.57 345.57L115.8 340.5C115.605 340.363 115.446 340.182 115.335 339.972C115.224 339.761 115.164 339.528 115.16 339.29C115.16 338.82 115.45 338.61 115.8 338.81L124.57 343.88C124.764 344.017 124.924 344.198 125.035 344.408C125.146 344.618 125.206 344.852 125.21 345.09C125.21 345.56 124.92 345.77 124.57 345.57Z" fill="#F69659"></path>
<path d="M198.94 391.66L211.51 384.4L217.51 377.66L204.94 384.92L198.94 391.66Z" fill="black"></path>
<path d="M213 370L148.86 333L132.3 342.57V345.15L196.43 382.15C202.2 385.48 210.59 386.04 215.16 383.4C217.11 382.27 218.04 380.74 218.03 379.1C218.03 378.68 218.03 376.98 218.03 376.54C218 374.36 216.3 372 213 370Z" fill="#37474F"></path>
<path d="M213 368.91L148.86 331.91L132.3 341.48V344L196.43 381C202.2 384.33 210.59 384.89 215.16 382.25C217.11 381.12 218.04 379.59 218.03 377.95C218.03 377.53 218.03 375.83 218.03 375.39C218 373.24 216.3 370.83 213 368.91Z" fill="#F69659"></path>
<path opacity="0.3" d="M213 368.91L148.86 331.91L132.3 341.48V344L196.43 381C202.2 384.33 210.59 384.89 215.16 382.25C217.11 381.12 218.04 379.59 218.03 377.95C218.03 377.53 218.03 375.83 218.03 375.39C218 373.24 216.3 370.83 213 368.91Z" fill="black"></path>
<path d="M215.15 379.73C210.58 382.37 202.15 381.82 196.42 378.49L132.3 341.49L135.18 339.81L136.83 338.86L144.41 334.48L148.84 331.91L212.97 368.91C218.76 372.24 219.72 377.09 215.15 379.73Z" fill="#F69659"></path>
<path d="M136.83 338.83L135.18 339.78C133.37 329.85 127.28 319.78 120.03 315.58C118.22 314.461 116.156 313.817 114.03 313.71C113.451 313.681 112.871 313.718 112.3 313.82C111.961 313.88 111.627 313.964 111.3 314.07L111.17 314.12C110.99 314.18 110.81 314.24 110.62 314.32C110.277 314.474 109.943 314.647 109.62 314.84C109.437 314.947 109.26 315.064 109.09 315.19L108.72 315.47C108.117 315.969 107.576 316.54 107.11 317.17C106.824 317.554 106.567 317.958 106.34 318.38C106.09 318.822 105.87 319.279 105.68 319.75C105.336 320.094 104.899 320.33 104.423 320.429C103.947 320.529 103.453 320.487 103 320.31C103.94 316.31 105.87 313.49 108.45 312C111.55 310.21 115.6 310.38 120.03 312.94C127.86 317.46 134.5 328.08 136.83 338.83Z" fill="#F69659"></path>
<path opacity="0.4" d="M136.83 338.83L135.18 339.78C133.37 329.85 127.28 319.78 120.03 315.58C118.22 314.461 116.156 313.817 114.03 313.71C113.451 313.681 112.871 313.718 112.3 313.82C111.961 313.88 111.627 313.964 111.3 314.07L111.17 314.12C110.99 314.18 110.81 314.24 110.62 314.32C110.277 314.474 109.943 314.647 109.62 314.84C109.437 314.947 109.26 315.064 109.09 315.19L108.72 315.47C108.117 315.969 107.576 316.54 107.11 317.17C106.824 317.554 106.567 317.958 106.34 318.38C106.09 318.822 105.87 319.279 105.68 319.75C105.336 320.094 104.899 320.33 104.423 320.429C103.947 320.529 103.453 320.487 103 320.31C103.94 316.31 105.87 313.49 108.45 312C111.55 310.21 115.6 310.38 120.03 312.94C127.86 317.46 134.5 328.08 136.83 338.83Z" fill="black"></path>
<path d="M136.84 338.83C134.51 328.08 127.84 317.46 120.04 312.94C115.61 310.38 111.56 310.21 108.46 312L116.06 307.61C119.16 305.82 123.2 305.99 127.63 308.55C135.47 313.07 142.11 323.69 144.43 334.44C145.45 339.13 141.69 341.63 136.84 338.83Z" fill="#F69659"></path>
<g opacity="0.2">
<path d="M136.84 338.83C134.51 328.08 127.84 317.46 120.04 312.94C115.61 310.38 111.56 310.21 108.46 312L116.06 307.61C119.16 305.82 123.2 305.99 127.63 308.55C135.47 313.07 142.11 323.69 144.43 334.44C145.45 339.13 141.69 341.63 136.84 338.83Z" fill="black"></path>
</g>
<path d="M232.64 371.67C232.556 371.669 232.474 371.649 232.4 371.61C232.327 371.58 232.261 371.535 232.205 371.478C232.15 371.422 232.106 371.354 232.077 371.281C232.049 371.207 232.035 371.128 232.037 371.049C232.039 370.97 232.057 370.892 232.09 370.82C235.78 362.49 234.46 356.98 231.99 354.61C231.18 353.814 230.137 353.297 229.013 353.135C227.888 352.973 226.742 353.174 225.74 353.71C225.597 353.78 225.432 353.791 225.281 353.739C225.13 353.688 225.005 353.578 224.935 353.435C224.865 353.292 224.854 353.126 224.906 352.976C224.957 352.825 225.067 352.7 225.21 352.63C226.435 351.988 227.832 351.75 229.2 351.949C230.569 352.149 231.839 352.775 232.83 353.74C235.59 356.4 237.13 362.41 233.19 371.31C233.142 371.416 233.065 371.507 232.968 371.57C232.87 371.634 232.757 371.669 232.64 371.67Z" fill="#263238"></path>
<path d="M236 374.68C235.917 374.683 235.835 374.665 235.76 374.63C235.688 374.598 235.623 374.553 235.568 374.496C235.513 374.439 235.47 374.372 235.441 374.299C235.413 374.226 235.399 374.147 235.4 374.069C235.402 373.99 235.419 373.912 235.45 373.84C238.96 365.66 237.67 358.69 235.5 355.21C234.37 353.395 232.576 352.093 230.5 351.58C229.595 351.378 228.658 351.363 227.747 351.535C226.836 351.707 225.969 352.062 225.2 352.58C225.068 352.646 224.916 352.662 224.774 352.623C224.631 352.584 224.508 352.495 224.428 352.371C224.347 352.247 224.315 352.098 224.338 351.952C224.36 351.806 224.436 351.674 224.55 351.58C225.454 350.974 226.471 350.558 227.541 350.359C228.61 350.159 229.709 350.18 230.77 350.42C233.172 350.997 235.252 352.494 236.56 354.59C238.89 358.32 240.29 365.72 236.56 374.34C236.507 374.442 236.427 374.528 236.328 374.588C236.229 374.648 236.116 374.68 236 374.68Z" fill="#263238"></path>
<path d="M249.62 405.28C249.62 394.18 242.88 381.28 234.56 376.49C234.12 376.24 233.7 376.04 233.27 375.84L233.15 375.78C232.86 375.65 232.58 375.55 232.29 375.44L231.64 375.21C231.43 375.14 231.22 375.09 231.01 375.04C230.8 374.99 230.44 374.9 230.16 374.85L229.7 374.79C229.37 374.79 229.04 374.73 228.7 374.72H227.91C225.048 374.814 222.252 375.606 219.765 377.026C217.278 378.446 215.175 380.452 213.64 382.87C212.116 385.001 211.203 387.508 211 390.12C210.893 390.895 210.836 391.677 210.83 392.46C210.825 392.527 210.825 392.593 210.83 392.66C210.83 392.74 210.83 392.8 210.83 392.88C210.83 403.98 217.57 416.88 225.89 421.67C226.33 421.92 226.76 422.12 227.18 422.32L227.3 422.38C227.59 422.51 227.88 422.61 228.16 422.72C228.44 422.83 228.6 422.89 228.81 422.95C229.02 423.01 229.23 423.07 229.44 423.12C229.65 423.17 230.02 423.26 230.3 423.31L230.75 423.37C231.08 423.37 232.2 423.46 232.32 423.46H232.52C235.384 423.362 238.181 422.568 240.669 421.146C243.157 419.724 245.262 417.718 246.8 415.3C248.322 413.169 249.232 410.661 249.43 408.05C249.537 407.274 249.594 406.493 249.6 405.71C249.605 405.643 249.605 405.577 249.6 405.51C249.6 405.44 249.6 405.37 249.6 405.29L249.62 405.28Z" fill="#37474F"></path>
<path d="M234.963 422.871C241.61 420.043 242.944 408.221 237.942 396.466C232.941 384.712 223.497 377.476 216.85 380.304C210.203 383.133 208.869 394.954 213.871 406.709C218.872 418.463 228.315 425.699 234.963 422.871Z" fill="#455A64"></path>
<path d="M230.3 418.07C228.67 418.018 227.081 417.542 225.69 416.69C219.48 413.1 214.43 403.47 214.43 395.21C214.43 390.77 215.9 387.38 218.43 385.9C220.58 384.66 223.3 384.9 226.1 386.48C232.31 390.06 237.36 399.7 237.36 407.95C237.36 412.39 235.89 415.78 233.36 417.27C232.428 417.801 231.373 418.077 230.3 418.07ZM221.53 386C220.615 385.991 219.714 386.226 218.92 386.68C216.64 388 215.33 391.11 215.33 395.21C215.33 403.21 220.18 412.46 226.14 415.9C228.65 417.35 231.05 417.56 232.91 416.49C235.19 415.17 236.5 412.06 236.5 407.95C236.5 399.95 231.65 390.7 225.69 387.26C224.437 386.483 223.003 386.049 221.53 386Z" fill="#37474F"></path>
<path d="M231.2 406.79C231.141 407.151 231.169 407.521 231.282 407.869C231.395 408.217 231.59 408.533 231.85 408.79L233 409.94C232.708 410.855 232.114 411.644 231.314 412.177C230.514 412.709 229.557 412.954 228.6 412.87L228.33 411.14C228.291 410.788 228.163 410.453 227.958 410.164C227.753 409.875 227.479 409.643 227.16 409.49C226.63 409.35 226.3 409.86 226.42 410.62L226.7 412.36C224.255 411.086 222.249 409.107 220.94 406.68L221.82 406.08C221.961 405.942 222.061 405.769 222.11 405.579C222.16 405.389 222.156 405.188 222.1 405C222.063 404.749 221.986 404.506 221.87 404.28C221.51 403.54 220.87 403.16 220.5 403.42L219.6 404.02C219.011 402.583 218.588 401.083 218.34 399.55C218.108 398.175 218.078 396.774 218.25 395.39L219.41 396.54C219.547 396.692 219.724 396.802 219.92 396.86C219.998 396.884 220.08 396.891 220.161 396.879C220.241 396.868 220.319 396.838 220.386 396.793C220.454 396.748 220.512 396.689 220.554 396.619C220.596 396.549 220.622 396.471 220.63 396.39C220.69 396.029 220.663 395.659 220.549 395.311C220.436 394.962 220.241 394.647 219.98 394.39L218.82 393.24C219.115 392.324 219.711 391.535 220.512 391.001C221.313 390.467 222.271 390.22 223.23 390.3L223.5 392.04C223.542 392.392 223.673 392.728 223.879 393.016C224.085 393.304 224.361 393.536 224.68 393.69C225.2 393.83 225.53 393.32 225.41 392.55L225.13 390.82C227.58 392.088 229.588 394.069 230.89 396.5L230.01 397.09C229.868 397.228 229.766 397.403 229.717 397.596C229.667 397.788 229.672 397.99 229.73 398.18C229.769 398.426 229.843 398.665 229.95 398.89C230.32 399.63 230.95 400.02 231.33 399.75L232.23 399.16C232.822 400.596 233.245 402.096 233.49 403.63C233.722 405.002 233.753 406.4 233.58 407.78L232.42 406.63C232.278 406.484 232.103 406.374 231.91 406.31C231.832 406.288 231.749 406.283 231.668 406.296C231.588 406.309 231.511 406.339 231.443 406.385C231.376 406.43 231.319 406.49 231.277 406.56C231.235 406.63 231.209 406.709 231.2 406.79Z" fill="#37474F"></path>
<path d="M224.82 361.8L222.74 349.31L201.55 372.94C200.43 374.18 200.75 375.74 202.55 376.78C203.801 377.413 205.183 377.744 206.585 377.744C207.987 377.744 209.369 377.413 210.62 376.78C210.991 376.569 211.328 376.302 211.62 375.99L224.82 361.8Z" fill="#37474F"></path>
<path d="M229.36 367.1L223.64 333.51L216.47 333.91L219.37 350.97L221.45 363.46L222.2 367.58C222.275 367.841 222.403 368.083 222.575 368.293C222.747 368.502 222.959 368.675 223.2 368.8C223.989 369.2 224.861 369.408 225.745 369.408C226.629 369.408 227.501 369.2 228.29 368.8C228.631 368.674 228.92 368.439 229.113 368.132C229.307 367.824 229.394 367.462 229.36 367.1Z" fill="#F69659"></path>
<path d="M217.55 335.27C218.337 335.674 219.21 335.885 220.095 335.885C220.98 335.885 221.853 335.674 222.64 335.27C224.05 334.46 224.05 333.15 222.64 332.33C221.851 331.93 220.979 331.722 220.095 331.722C219.211 331.722 218.339 331.93 217.55 332.33C216.14 333.15 216.14 334.46 217.55 335.27Z" fill="#F69659"></path>
<path opacity="0.3" d="M217.55 335.27C218.337 335.674 219.21 335.885 220.095 335.885C220.98 335.885 221.853 335.674 222.64 335.27C224.05 334.46 224.05 333.15 222.64 332.33C221.851 331.93 220.979 331.722 220.095 331.722C219.211 331.722 218.339 331.93 217.55 332.33C216.14 333.15 216.14 334.46 217.55 335.27Z" fill="black"></path>
<path d="M221.92 366C222.45 369.2 217.12 373 218.13 378.8C219.14 384.6 221.78 400.26 221.78 400.26C222.43 403.46 224.19 405.94 226.36 406.48C228.04 406.83 229.42 405.48 228.99 402.01L225.27 380.14C224.77 377.19 230.51 375.14 232.27 375.48C234.612 376.38 236.738 377.764 238.51 379.54C238.05 377.54 237.81 376.69 237.16 374.01C235.7 368.01 229.37 367.2 228.57 362.53L221.92 366Z" fill="#F69659"></path>
<path d="M227.78 402.53L226.09 392.33C225.907 391.644 225.565 391.011 225.093 390.482C224.62 389.952 224.03 389.54 223.37 389.28C222.07 388.79 221.17 389.36 221.37 390.55L223.06 400.75C223.243 401.435 223.583 402.067 224.053 402.597C224.524 403.126 225.112 403.538 225.77 403.8C227.08 404.29 228 403.72 227.78 402.53Z" fill="#37474F"></path>
<path d="M226.19 401.84L224.54 391.84C224.475 391.615 224.359 391.407 224.201 391.234C224.044 391.061 223.848 390.926 223.63 390.84C223.19 390.67 222.89 390.84 222.95 391.26L224.61 401.26C224.672 401.487 224.787 401.695 224.945 401.869C225.103 402.043 225.3 402.177 225.52 402.26C226 402.43 226.26 402.24 226.19 401.84Z" fill="#F69659"></path>
<path d="M190.76 179.52C180.63 157.62 186.03 130.76 187.46 121.18C194.54 121.26 200.46 126.68 200.46 142.07C200.46 147.7 201.32 166.49 205.19 174.66C209.181 182.695 214.673 189.891 221.37 195.86C222.85 197.14 226.67 197.94 227.81 198.36C230.81 199.47 231.61 200.07 230.81 202.53C230.362 203.7 229.618 204.734 228.65 205.53C227.063 207.001 225.258 208.218 223.3 209.14C221.76 209.85 218.62 211.23 216.88 210.68C216 210.4 214.98 209.1 214.31 208.48C213.4 207.63 212.53 206.76 211.67 205.87C210.04 204.19 208.49 202.43 206.99 200.64C198.78 190.75 193.5 185.46 190.76 179.52Z" fill="#FFA8A7"></path>
<path d="M184.65 120.82C192.34 120.87 196.32 123.16 198.79 127.93C201.26 132.7 202.67 153.54 203.79 158.2C203.79 158.2 200.18 165.85 182.39 163.87L184.65 120.82Z" fill="#455A64"></path>
<path d="M190.89 184.27L157.38 191.72L167.38 248.2C167.38 248.2 159.51 256.69 155.25 266.2C152.15 273.12 143.25 301.55 141.49 305.91L138.27 314.08C138.07 315.46 138.87 318.2 142.27 319.16C145.67 320.12 148.98 318.49 149.42 317.22C149.42 317.22 149.76 315.64 154.08 309.57C158.4 303.5 189.51 259.89 191.08 257.02C193.41 252.71 196.08 249.02 195.69 235.24C195.24 221.27 192.63 191.25 190.89 184.27Z" fill="#FFA8A7"></path>
<path d="M192.84 192C192.84 192 193.68 199.21 195.55 217.32C197.42 235.43 198.82 242.91 193.63 253.99C188.44 265.07 179.84 277.39 177.07 281.11C172.391 280.57 167.883 279.03 163.851 276.596C159.819 274.161 156.357 270.889 153.7 267L161 250.68L145.23 198L192.84 192Z" fill="#455A64"></path>
<path d="M157.73 261.39C156.815 262.958 155.984 264.574 155.24 266.23C154.49 267.9 153.39 270.84 152.14 274.39C152.66 279.15 153.37 285.39 153.66 286.69H156.24C156.889 291.92 157.929 297.095 159.35 302.17L168.35 289.47C166.22 279.26 159.86 266.29 157.73 261.39Z" fill="#F28F8F"></path>
<path d="M192.11 192.24C192.11 192.24 192.23 201.34 186.96 207.94C181.69 214.54 177.87 216.33 177.87 216.33C177.87 216.33 182.73 247.58 183.72 253.61C184.9 260.77 184.15 270.78 184.15 270.78L173.78 215.16L192.11 192.24Z" fill="#37474F"></path>
<path d="M133.84 320.21C133.13 320.13 132.16 322.66 132.16 323.48C132.507 325.011 133.19 326.446 134.16 327.68C135.66 329.541 136.824 331.649 137.6 333.91C138.339 337.162 139.697 340.241 141.6 342.98C143.638 345.669 146.51 347.608 149.767 348.493C153.023 349.377 156.481 349.158 159.6 347.87C164.99 345.81 164.99 343.87 164.52 342.61L133.84 320.21Z" fill="#37474F"></path>
<path d="M151.13 315.73C150.93 318.66 151.52 326.52 156.65 331.88C160.09 335.48 164.42 337.95 164.57 341.8C164.67 344.19 159.28 346.87 153.71 346.49C150.1 346.24 147.4 345.65 145.24 343.61C142.707 341.406 140.878 338.505 139.98 335.27C139.318 332.847 138.403 330.501 137.25 328.27C136.03 326.08 133.77 323.62 133.67 321.34C133.61 320.09 134.81 317.74 135.99 315.8C137.07 314.02 137.9 312.27 138.89 312.45L138.5 313.45C139.506 314.282 140.679 314.889 141.94 315.23C142.47 315.41 142.94 317.4 143.52 317.4C144.1 317.4 143.66 315.83 144.65 315.24C147.86 313.34 151.13 315.73 151.13 315.73Z" fill="#455A64"></path>
<path d="M184.7 335.53C184.7 335.53 182.55 286.53 181.46 265.4C179.308 248.701 176.105 232.155 171.87 215.86C176.008 213.459 179.6 210.224 182.42 206.36C189.95 196.47 190.15 187.89 190.15 187.89L186.06 187.43L141.66 187.37C141.48 194.7 140.77 204.97 141.37 214.51C142.61 234.06 160.04 269.31 160.04 269.31C159.75 271.99 157.33 283.31 159.65 293.36C163.32 309.25 172.02 329.36 173.44 338L174.91 345.26L186.06 343L184.7 335.52V335.53Z" fill="#FFA8A7"></path>
<path d="M140.71 185.22C139.664 192.181 138.97 199.189 138.63 206.22C138.49 212.22 139.86 220.57 142.29 229.02C144.72 237.47 151.92 257.95 152.84 260.93C153.76 263.91 155.51 283.34 155.51 283.34C155.51 283.34 172.7 287.84 184.64 280.7C184.64 280.7 183.79 261.27 182.92 256.31C182.05 251.35 173.78 215.19 173.78 215.19C173.78 215.19 191.83 204.25 192.84 187.64L140.71 185.22Z" fill="#455A64"></path>
<path d="M173.1 349.23C172.41 349.51 172.75 352.31 173.15 353.07C174.034 354.43 175.258 355.537 176.7 356.28C178.825 357.244 180.683 358.713 182.11 360.56C184.326 363.327 187.135 365.562 190.33 367.1C194.33 368.97 199.49 369.7 204.09 367.7C208.69 365.7 208.96 363.58 208.74 361.77L173.1 349.23Z" fill="#37474F"></path>
<path d="M186.86 336.63C189.324 341.727 192.715 346.322 196.86 350.18C200.7 353.52 207.99 357.93 208.86 360.56C210.25 364.51 202.77 366.38 199.22 366.47C196.099 366.58 193.001 365.891 190.22 364.47C188.799 363.703 187.459 362.795 186.22 361.76C183.76 359.76 181.92 357.12 180.12 355.5C178.32 353.88 174.65 352.4 173.44 350.35C172.78 349.22 172.73 346.47 172.87 344.1C172.99 341.94 172.7 339.93 173.71 339.61L173.96 340.85C175.336 340.916 176.715 340.855 178.08 340.67C178.66 340.57 180.08 342.19 180.61 341.9C181.14 341.61 179.97 340.38 180.61 339.35C182.67 336 186.86 336.63 186.86 336.63Z" fill="#455A64"></path>
<path d="M194.31 154.88C196.12 139.94 199 124.38 187.46 121.18C184.75 120.43 177.84 120.95 177.84 120.95L166.6 121.51C159.51 123.01 148.84 124.21 146.26 129.87C143.68 135.53 141.54 136.87 140.13 158.37C139.22 172.13 138.62 184.5 138.43 200.52C150.06 206.74 185.5 205.09 193.16 192.75C192.82 182 191.85 175.13 194.31 154.88Z" fill="#F69659"></path>
<path d="M198.24 88.3199C198.247 84.3011 196.71 80.4332 193.945 77.5166C191.18 74.6001 187.399 72.8581 183.386 72.6513C179.372 72.4444 175.433 73.7885 172.383 76.4054C169.333 79.0223 167.405 82.7116 167 86.7099L160 81.5499C159.16 81.4533 158.31 81.549 157.513 81.8297C156.716 82.1104 155.993 82.5687 155.4 83.1699C153.4 85.1699 154.54 91.5199 157.01 97.7199C157.01 97.7199 159.42 108.99 160.38 110.85C161.035 111.998 162.111 112.848 163.38 113.22L163.23 106.38L191.69 104.73L188.91 102.73C191.698 101.495 194.065 99.4745 195.722 96.9151C197.379 94.3558 198.254 91.3688 198.24 88.3199Z" fill="#263238"></path>
<path d="M162.86 98.2299C161.95 98.7799 161.15 96.8599 159.53 95.8699C158.16 95.0199 155.05 93.5199 152.94 96.9399C150.67 100.63 154.63 105.82 157.44 106.94C161.59 108.56 163.13 105.31 163.13 105.31L163.53 123.18C169.07 133.62 183.38 131.86 179.65 122.69V117.25C181.858 117.602 184.097 117.716 186.33 117.59C189.97 117.02 192.26 114.14 193.33 110.2C195.1 103.86 195.76 98.7499 194.25 86.2899C192.58 72.6399 176.7 72.5099 168.13 77.9199C159.56 83.3299 162.86 98.2299 162.86 98.2299Z" fill="#FFA8A7"></path>
<path d="M197.9 73.5999C196.714 73.0006 195.36 72.8242 194.06 73.0999C194.16 72.1285 193.951 71.1503 193.462 70.3046C192.974 69.4589 192.231 68.7889 191.34 68.3899C190.397 67.9153 189.336 67.7294 188.288 67.8557C187.24 67.982 186.253 68.4149 185.45 69.0999C185.85 67.7199 184.61 66.2899 183.21 65.9599C181.781 65.7642 180.326 65.9865 179.02 66.5999C177.02 67.3299 175.02 68.1499 173.02 68.7999C169.43 69.9499 165.62 70.5799 162.36 72.4699C161.586 72.8929 160.906 73.4677 160.36 74.1599C159.641 75.1916 159.289 76.4345 159.36 77.6899C159.374 78.1002 159.424 78.5085 159.51 78.9099C159.274 78.6366 158.989 78.4094 158.67 78.2399C158.31 78.045 157.913 77.926 157.505 77.8903C157.097 77.8545 156.685 77.9028 156.296 78.0321C155.908 78.1614 155.549 78.369 155.244 78.6421C154.938 78.9152 154.692 79.248 154.52 79.6199L159.87 82.4799C159.72 83.5599 159.57 84.6399 159.45 85.7299C159.12 88.5999 158.52 91.9299 159.12 94.7999C159.149 95.1562 159.266 95.4997 159.46 95.7999C160.485 96.6116 161.415 97.5376 162.23 98.5599C162.64 99.0799 163.13 99.8999 163.8 100.11C164.158 100.209 164.54 100.181 164.88 100.032C165.221 99.8823 165.5 99.6205 165.67 99.2899C165.792 98.878 165.819 98.4439 165.75 98.0199L165.3 92.7099C165.22 92.238 165.258 91.7537 165.41 91.2999C165.732 90.7486 166.181 90.2822 166.72 89.9399C167.345 89.4168 167.859 88.7739 168.231 88.0492C168.604 87.3245 168.828 86.5325 168.89 85.7199C168.886 85.2083 168.943 84.698 169.06 84.1999C169.17 83.8299 169.48 83.1999 169.9 83.1999C170.73 83.1999 175.23 84.2499 176.36 84.4199C182.24 85.3099 188.58 85.5499 193.82 82.7299C195.82 81.6299 199.31 79.3399 199.7 76.8399C199.753 76.1825 199.611 75.524 199.291 74.9473C198.97 74.3707 198.486 73.9019 197.9 73.5999Z" fill="#263238"></path>
<path d="M179.63 117.23C179.63 117.23 171.49 115.6 168.63 114.09C166.958 113.22 165.586 111.868 164.69 110.21C165.124 111.871 165.885 113.428 166.93 114.79C169.01 117.45 179.61 119.39 179.61 119.39L179.63 117.23Z" fill="#F28F8F"></path>
<path d="M179.56 96.9999C179.548 97.2984 179.449 97.5869 179.275 97.8298C179.102 98.0728 178.86 98.2595 178.582 98.367C178.303 98.4746 177.999 98.4981 177.707 98.4349C177.415 98.3717 177.148 98.2243 176.939 98.0111C176.73 97.7979 176.587 97.5281 176.53 97.235C176.472 96.9419 176.501 96.6384 176.614 96.3618C176.727 96.0852 176.918 95.8477 177.165 95.6785C177.411 95.5094 177.701 95.416 178 95.4099C178.207 95.4099 178.413 95.4512 178.604 95.5315C178.795 95.6117 178.968 95.7293 179.114 95.8774C179.259 96.0254 179.373 96.201 179.45 96.3937C179.526 96.5865 179.564 96.7925 179.56 96.9999Z" fill="#263238"></path>
<path d="M176.66 91.2599L173.06 92.9999C172.843 92.5066 172.826 91.9485 173.013 91.443C173.199 90.9375 173.575 90.5241 174.06 90.2899C174.294 90.1798 174.547 90.1176 174.806 90.1069C175.064 90.0962 175.322 90.1372 175.564 90.2276C175.806 90.318 176.028 90.4558 176.216 90.6331C176.404 90.8104 176.555 91.0235 176.66 91.2599Z" fill="#263238"></path>
<path d="M176.5 106.5L182.94 108.91C182.799 109.341 182.574 109.74 182.276 110.082C181.978 110.425 181.615 110.703 181.207 110.902C180.799 111.101 180.355 111.216 179.902 111.239C179.449 111.263 178.996 111.195 178.57 111.04C177.704 110.699 177.003 110.035 176.617 109.188C176.231 108.341 176.189 107.377 176.5 106.5Z" fill="#B16668"></path>
<path d="M180.52 111.15C180.407 110.268 179.952 109.465 179.252 108.917C178.551 108.368 177.663 108.118 176.78 108.22C176.64 108.22 176.5 108.28 176.36 108.31C176.455 108.919 176.71 109.493 177.098 109.972C177.486 110.452 177.994 110.82 178.57 111.04C179.192 111.28 179.874 111.318 180.52 111.15Z" fill="#F28F8F"></path>
<path d="M193.62 92.68L190.19 90.83C190.304 90.6045 190.463 90.4046 190.657 90.2424C190.851 90.0801 191.076 89.9589 191.318 89.886C191.56 89.813 191.815 89.79 192.066 89.8182C192.317 89.8464 192.56 89.9252 192.78 90.05C193.231 90.2964 193.57 90.707 193.727 91.1968C193.883 91.6865 193.845 92.2176 193.62 92.68Z" fill="#263238"></path>
<path d="M191.81 96.91C191.798 97.2097 191.698 97.4994 191.523 97.743C191.348 97.9866 191.105 98.1733 190.825 98.28C190.545 98.3866 190.239 98.4085 189.946 98.3429C189.653 98.2772 189.387 98.127 189.179 97.9108C188.97 97.6946 188.831 97.4221 188.776 97.1271C188.722 96.832 188.756 96.5275 188.873 96.2514C188.99 95.9753 189.186 95.7398 189.436 95.5742C189.686 95.4086 189.98 95.3202 190.28 95.3199C190.485 95.3238 190.687 95.3681 190.875 95.4501C191.062 95.5321 191.232 95.6503 191.374 95.798C191.516 95.9456 191.628 96.1198 191.703 96.3106C191.777 96.5014 191.814 96.7051 191.81 96.91Z" fill="#263238"></path>
<path d="M184.03 95.85L184.2 105.73L190.04 104.46L184.03 95.85Z" fill="#F28F8F"></path>
<path d="M140 219.52C140 219.52 152.92 220.65 160.24 219.62C160.24 219.62 166.67 246.76 166.93 249.89C167.19 253.02 154.17 252.68 151.55 252.22C148.93 251.76 146.92 251.29 145.19 244.37C143.46 237.45 140.59 226.31 140 219.52Z" fill="#37474F"></path>
<path d="M213.85 208C215.4 209.36 217.28 213.28 219.47 214.93C221.66 216.58 227.85 215.93 227.85 215.93L227.79 211.15L220.89 207.94L213.85 208Z" fill="#F28F8F"></path>
<path d="M221.43 213.14L217.94 207.14L232.69 198.63C232.969 198.492 233.281 198.434 233.591 198.46C233.901 198.486 234.198 198.597 234.45 198.78C235.166 199.249 235.762 199.88 236.189 200.622C236.616 201.363 236.863 202.195 236.91 203.05C236.939 203.349 236.891 203.65 236.77 203.925C236.65 204.2 236.46 204.439 236.22 204.62L221.43 213.14Z" fill="#455A64"></path>
<path d="M222.15 211.55C222.15 213.12 221.04 213.76 219.68 212.97C218.963 212.504 218.366 211.875 217.939 211.135C217.511 210.395 217.265 209.564 217.22 208.71C217.22 207.14 218.32 206.5 219.68 207.28C220.397 207.748 220.995 208.379 221.424 209.121C221.853 209.862 222.101 210.694 222.15 211.55Z" fill="#37474F"></path>
<path d="M219.29 208.89C219.089 208.76 218.847 208.707 218.61 208.74L204.17 217.05L203.83 217.25L205.52 220.19L219.95 211.89L220.35 211.64C220.478 211.463 220.538 211.247 220.52 211.03C220.494 210.602 220.37 210.187 220.157 209.815C219.943 209.444 219.647 209.127 219.29 208.89Z" fill="#E0E0E0"></path>
<path d="M222.92 333.46L203.19 217.7L197.56 218.02L215.09 320.79L216.73 330.6L217.31 333.84C217.366 334.053 217.466 334.252 217.604 334.425C217.742 334.597 217.914 334.738 218.11 334.84C218.73 335.155 219.415 335.32 220.11 335.32C220.805 335.32 221.491 335.155 222.11 334.84C222.38 334.733 222.606 334.539 222.753 334.289C222.899 334.039 222.958 333.747 222.92 333.46Z" fill="#37474F"></path>
<path d="M203.42 219.06H197.73L199.52 229.53L204.04 230.6C204.48 230.7 204.95 230.78 205.43 230.84L203.42 219.06Z" fill="#263238"></path>
<path d="M198.39 219.08C199.01 219.395 199.695 219.56 200.39 219.56C201.085 219.56 201.771 219.395 202.39 219.08C202.631 218.998 202.841 218.842 202.989 218.635C203.137 218.428 203.217 218.18 203.217 217.925C203.217 217.67 203.137 217.422 202.989 217.215C202.841 217.008 202.631 216.852 202.39 216.77C201.769 216.459 201.084 216.298 200.39 216.298C199.696 216.298 199.011 216.459 198.39 216.77C198.149 216.852 197.939 217.008 197.791 217.215C197.643 217.422 197.563 217.67 197.563 217.925C197.563 218.18 197.643 218.428 197.791 218.635C197.939 218.842 198.149 218.998 198.39 219.08Z" fill="#455A64"></path>
<path d="M204 228.09C207.24 228.85 211.64 228.45 213.82 227.19C214.74 226.66 215.11 226.06 215 225.49C214.84 224.7 213.5 216.59 213.5 216.59L191.32 216.53L192.82 225.46L204 228.09Z" fill="#37474F"></path>
<path d="M202.54 219.16C205.78 219.92 210.17 219.52 212.35 218.26C213.26 217.74 213.64 217.15 213.54 216.59C213.4 215.79 212.32 215.05 210.42 214.59L199.25 212L191.36 216.56L202.54 219.16Z" fill="#455A64"></path>
<path d="M196.91 221.19L180.42 230.73L182.1 233.65L198.58 224.18C199.55 223.63 198.24 220.62 196.91 221.19Z" fill="#E0E0E0"></path>
<path d="M172.7 240.7L169.21 234.7L184 226.15C184.282 226.014 184.595 225.957 184.907 225.985C185.219 226.013 185.517 226.126 185.77 226.31C186.487 226.776 187.084 227.404 187.511 228.145C187.939 228.885 188.185 229.716 188.23 230.57C188.259 230.869 188.211 231.17 188.09 231.445C187.97 231.72 187.78 231.959 187.54 232.14L172.7 240.7Z" fill="#455A64"></path>
<path d="M173.42 239.11C173.42 240.68 172.32 241.31 170.96 240.53C170.244 240.061 169.648 239.43 169.221 238.688C168.794 237.947 168.547 237.115 168.5 236.26C168.5 234.69 169.6 234.05 170.96 234.84C171.678 235.307 172.275 235.938 172.702 236.68C173.13 237.422 173.376 238.255 173.42 239.11Z" fill="#263238"></path>
<path d="M217.31 220.28L214.88 218.85C214.446 218.676 213.974 218.621 213.512 218.69C213.05 218.758 212.615 218.948 212.25 219.24C211.194 220.007 210.333 221.01 209.735 222.171C209.138 223.331 208.821 224.615 208.81 225.92C208.786 226.386 208.885 226.851 209.097 227.267C209.31 227.683 209.628 228.036 210.02 228.29L212.45 229.72C212.885 229.892 213.357 229.946 213.819 229.875C214.281 229.805 214.716 229.613 215.08 229.32C216.138 228.556 217 227.552 217.596 226.391C218.192 225.23 218.505 223.945 218.51 222.64C218.539 222.175 218.442 221.711 218.231 221.296C218.02 220.882 217.702 220.531 217.31 220.28Z" fill="#455A64"></path>
<path d="M212.4 229.7L210 228.29C209.608 228.036 209.29 227.683 209.077 227.267C208.865 226.851 208.766 226.386 208.79 225.92C208.77 224.762 209.02 223.615 209.52 222.57L212 224C211.5 225.045 211.25 226.192 211.27 227.35C211.244 227.805 211.333 228.26 211.531 228.671C211.729 229.082 212.028 229.436 212.4 229.7Z" fill="#263238"></path>
<path d="M215.09 229.33C216.148 228.566 217.01 227.562 217.606 226.401C218.202 225.24 218.515 223.955 218.52 222.65C218.41 220.26 216.68 219.37 214.67 220.65C213.614 221.417 212.753 222.42 212.155 223.581C211.558 224.741 211.241 226.025 211.23 227.33C211.35 229.74 213.08 230.63 215.09 229.33Z" fill="#37474F"></path>
<path d="M213.4 229.17C212.22 229.22 212.02 227.89 211.99 227.31C212.008 226.139 212.296 224.989 212.832 223.948C213.368 222.907 214.138 222.005 215.08 221.31C215.459 221.046 215.9 220.884 216.36 220.84C217.54 220.78 217.74 222.11 217.76 222.69C217.746 223.86 217.461 225.011 216.926 226.052C216.392 227.094 215.623 227.997 214.68 228.69C214.301 228.955 213.86 229.12 213.4 229.17Z" fill="#263238"></path>
<path d="M215.08 221.31C215.421 221.075 215.811 220.921 216.22 220.86C216.425 221.249 216.538 221.68 216.55 222.12C216.534 223.291 216.247 224.442 215.711 225.483C215.174 226.525 214.404 227.427 213.46 228.12C213.118 228.354 212.729 228.51 212.32 228.58C212.115 228.187 212.002 227.753 211.99 227.31C212.008 226.139 212.296 224.989 212.832 223.948C213.368 222.907 214.138 222.005 215.08 221.31Z" fill="#F69659"></path>
<path d="M215 194.5C223.76 197.92 232.06 197.98 235.48 203.07C236.31 205.49 237.3 211.14 235.57 213.31C233.07 216.45 226.79 219 223.96 215.6C223.302 214.68 222.78 213.669 222.41 212.6L225.41 210.85C226.41 208.72 223.94 204.85 221.85 204.85L219.69 206.1L220.98 200.57L215 194.5Z" fill="#FFA8A7"></path>
<path d="M170.26 213.87C176.12 217.64 184.19 220.38 187.39 222.87C190.59 225.36 191.73 232.12 190.16 234.8C188.59 237.48 181.65 240.7 179.24 240.07C176.83 239.44 176.77 238.39 176.77 238.39L178.63 237.32C179.9 236.53 178.79 231.54 175.54 231.06L171.77 233.23C169.605 231.62 167.958 229.413 167.03 226.88L170.26 213.87Z" fill="#FFA8A7"></path>
<path d="M138.23 186.43C134.07 170.91 134.23 140.28 138.97 132.22C141.13 128.55 147.73 125.79 152.67 124.85C155.77 127.85 156.45 139.76 153.67 151.07C153.92 156.69 153.67 176.53 154.6 181.65C156.05 189.65 169.71 212.01 176.21 217.21C180.39 220.56 174.07 228.21 168.15 229.21C163.34 219.87 142.48 202.27 138.23 186.43Z" fill="#FFA8A7"></path>
<path d="M153.16 124.66C146.85 125.1 140.85 127.42 137.9 131.38C134.95 135.34 133.82 143.22 133.4 151.52C132.98 159.82 133.4 172.79 133.4 172.79C133.4 172.79 142.75 178.12 155.4 173.19L154.4 150.56C154.4 150.56 158.06 129.7 153.16 124.66Z" fill="#455A64"></path>
</svg>